<?xml version="1.0" encoding="UTF-8" standalone="no"?>
<svg
   xmlns:dc="http://purl.org/dc/elements/1.1/"
   xmlns:cc="http://creativecommons.org/ns#"
   xmlns:rdf="http://www.w3.org/1999/02/22-rdf-syntax-ns#"
   xmlns:svg="http://www.w3.org/2000/svg"
   xmlns="http://www.w3.org/2000/svg"
   viewBox="0 0 626 344"
   height="344"
   width="626"
   id="svg2"
   version="1.1">
  <metadata
     id="metadata8">
    <rdf:RDF>
      <cc:Work
         rdf:about="">
        <dc:format>image/svg+xml</dc:format>
        <dc:type
           rdf:resource="http://purl.org/dc/dcmitype/StillImage" />
        <dc:title></dc:title>
      </cc:Work>
    </rdf:RDF>
  </metadata>
  <defs
     id="defs6" />
  <g
     transform="translate(-3.3063386,6.6126775)"
     id="g4525">
    <path
       id="path4539"
       d="m 178.61166,326.68477 c 0,-4.65352 0.80889,-6.42052 6.23498,-13.62008 7.06266,-9.37103 8.61085,-15.92835 7.12256,-30.16749 -0.53185,-5.08853 -0.96173,-6.14669 -2.49712,-6.14669 -2.91056,0 -9.22229,6.36747 -11.82951,11.93401 -1.30503,2.78629 -2.74586,5.06599 -3.20185,5.06599 -1.4104,0 -0.87484,-4.30526 1.05737,-8.5 2.08888,-4.53485 3.93448,-6.56811 13.54643,-14.92381 7.44351,-6.47066 9.56714,-10.21508 9.56714,-16.86892 0,-5.09087 -3.87816,-17.11728 -7.52834,-23.34585 -4.41829,-7.53923 -10.84258,-9.10092 -22.15776,-5.38634 -17.51163,5.74878 -25.05291,11.30484 -31.25186,23.02492 -1.89088,3.575 -5.37838,9.39625 -7.75,12.93611 -3.52871,5.26692 -4.31204,7.27374 -4.31204,11.04705 0,4.06179 0.4764,5.07613 4,8.51684 2.2,2.14824 4,4.48957 4,5.20295 0,1.66574 0.24283,1.71604 -5.80794,-1.20295 -2.85024,-1.375 -5.40946,-2.5 -5.68716,-2.5 -1.06224,0 -0.35163,8.68188 1.02313,12.5 2.23856,6.21718 2.83326,12.87524 1.50855,16.88917 -1.78396,5.40544 -3.83884,4.70154 -3.32559,-1.13917 0.2849,-3.24213 -0.39659,-7.42487 -2.14679,-13.17623 -2.69907,-8.86941 -3.31241,-17.97562 -1.52704,-22.67151 2.01136,-5.29028 -0.5801,-4.89583 -8.04775,1.22497 -14.710798,12.05759 -25.221727,27.24176 -27.472406,39.68686 -0.615293,3.40225 -1.545829,6.07799 -2.067858,5.94608 -0.522028,-0.13191 -1.086904,-3.05691 -1.255279,-6.5 -0.492875,-10.07877 1.704385,-15.48501 10.971115,-26.9938 1.210597,-1.5035 1.879257,-3.05547 1.485912,-3.44881 -1.202411,-1.20241 -9.874062,1.62517 -14.938913,4.87116 -2.633413,1.68771 -4.979253,2.87734 -5.212978,2.64361 -0.233726,-0.23372 0.430184,-1.83112 1.475354,-3.54976 2.365164,-3.8892 8.260373,-7.39516 18.887602,-11.23272 4.516981,-1.63111 10.438261,-4.17696 13.158391,-5.65744 5.46994,-2.97712 11.97965,-8.98659 11.97965,-11.05908 0,-2.21374 -5.08102,-1.49296 -11.47756,1.62818 -6.213209,3.03169 -7.683005,3.10192 -5.904334,0.28215 1.961344,-3.10939 10.322594,-8.05884 17.220524,-10.19372 11.61387,-3.59444 17.73945,-9.69182 18.80899,-18.72242 1.6702,-14.10229 -9.46589,-24.32752 -26.49463,-24.32752 -14.3211,0 -21.750969,3.94924 -24.072625,12.79547 -2.151655,8.19847 -2.328321,15.5319 -0.522873,21.70453 1.933263,6.60962 2.480383,15.7173 0.991194,16.5 -0.523225,0.275 -1.648225,-2.425 -2.5,-6 -2.078789,-8.72492 -3.885425,-8.98057 -10.91771,-1.54497 -2.88431,3.04973 -5.443724,5.54497 -5.687587,5.54497 -0.243862,0 -0.443386,-0.93341 -0.443386,-2.07424 0,-1.14083 2.414669,-4.62833 5.365931,-7.75 l 5.365931,-5.67576 0.647122,-10 c 0.355917,-5.5 0.927533,-11.53207 1.270257,-13.40459 l 0.623136,-3.40459 -4.726806,0.64788 c -6.428166,0.88108 -13.09904,3.97881 -14.680731,6.81724 -0.718415,1.28923 -1.565196,5.97081 -1.881737,10.4035 -0.599123,8.38985 -3.354885,14.44056 -6.576877,14.44056 -1.261395,0 -1.252229,-0.39712 0.06809,-2.95034 1.820487,-3.52043 2.200103,-21.04966 0.455859,-21.04966 -1.614446,0 -9.01461,5.37197 -12.610846,9.15453 -1.749369,1.84001 -4.36055,5.70797 -5.802624,8.59547 -1.442075,2.8875 -3.062396,5.25 -3.600714,5.25 -3.488,0 -1.228396,-12.43566 3.169807,-17.44494 1.602811,-1.8255 2.914202,-3.80484 2.914202,-4.39853 0,-0.59369 -1.730646,-1.54546 -3.845881,-2.11503 -4.811491,-1.2956 -11.977486,-6.40634 -13.084749,-9.33196 -0.459938,-1.21525 -0.686347,-2.3744 -0.503132,-2.57588 0.183215,-0.20149 3.023218,1.43003 6.311119,3.62561 6.431748,4.29495 12.624655,5.83856 19.061296,4.75109 6.60897,-1.11657 22.547556,-7.17642 22.847823,-8.68674 0.161035,-0.80999 -2.162497,-3.12761 -5.306396,-5.2929 -7.733453,-5.32623 -12.83598,-11.45305 -15.888411,-19.07789 -2.77932,-6.94262 -3.126341,-9.00435 -1.667337,-9.90606 0.508383,-0.3142 2.55079,2.81027 4.538683,6.94327 3.581107,7.44543 7.359615,11.35565 9.622009,9.95741 0.82103,-0.50742 1.026058,-3.53375 0.683323,-10.08619 -0.26931,-5.14869 -0.118193,-9.36126 0.335816,-9.36126 2.17384,0 5.864625,11.7923 5.883968,18.79966 0.01351,4.89287 2.127134,9.65648 4.956478,11.1707 1.058149,0.5663 4.606866,1.02964 7.886036,1.02964 6.89451,0 18.240481,-4.1263 24.082642,-8.75836 7.45715,-5.91255 10.50689,-16.75731 9.91057,-35.24164 -0.31464,-9.75311 -0.75979,-12.33639 -2.93044,-17.00609 -2.94536,-6.33632 -7.46148,-11.22275 -12.969126,-14.03253 -6.23303,-3.17986 -17.634354,-2.41141 -20.085557,1.35377 -0.363696,0.55865 -0.959395,3.0038 -1.323776,5.43367 -1.007805,6.72053 -3.30604,12.42368 -6.240895,15.48701 -4.05862,4.23628 -5.748887,3.61523 -3.288168,-1.20818 1.946262,-3.81499 4.689494,-18.68559 3.640506,-19.73458 -0.279257,-0.27926 -3.090567,0.97 -6.247356,2.77613 -5.615445,3.21284 -5.976155,3.2794 -16.673407,3.0769 l -10.933791,-0.20698 -8.478972,4.10406 c -4.663435,2.25723 -8.741795,3.84123 -9.063022,3.52001 -1.137409,-1.13741 5.346555,-6.82134 10.770147,-9.44126 5.086335,-2.457 5.523595,-2.94179 5.813718,-6.44562 0.230254,-2.78079 -0.501377,-5.23306 -2.75,-9.2174 -3.47692,-6.16077 -3.557738,-6.45891 -1.750809,-6.45891 2.979715,0 9.687091,9.65926 9.687091,13.95034 0,3.94618 3.455044,6.04966 9.936792,6.04966 5.428709,0 6.519879,-0.39962 12.75,-4.66944 7.349352,-5.03689 13.423555,-7.33056 19.413122,-7.33056 2.080129,0 4.054546,-0.44091 4.387595,-0.97979 0.707586,-1.1449 -5.681882,-7.74868 -13.500953,-13.95379 C 64.546963,100.22115 51.61919,93.953053 45.4382,93.133115 c -2.654595,-0.352144 -4.826537,-1.043426 -4.826537,-1.536183 0,-1.800167 5.565974,-2.993358 10.890023,-2.334519 5.305645,0.656561 5.378923,0.63038 4.6809,-1.672448 -0.390018,-1.286698 -1.568304,-5.522763 -2.618413,-9.413478 -1.050109,-3.890715 -2.856614,-9.215614 -4.014457,-11.833109 -1.157842,-2.617495 -1.845326,-5.018924 -1.527741,-5.336509 1.903619,-1.90362 8.849256,9.480739 11.132592,18.247054 0.796162,3.056675 2.399406,7.423347 3.562764,9.703717 2.55399,5.006235 10.132546,13.18861 16.352653,17.65555 5.577458,4.00543 5.888978,3.52804 5.394718,-8.267114 -0.312558,-7.458983 -0.700894,-8.922121 -3.386742,-12.760293 -1.835907,-2.623576 -5.099124,-5.449252 -8.264872,-7.156696 -4.895921,-2.640611 -6.358155,-5.497868 -2.126217,-4.154703 3.450171,1.095042 4.007547,-0.443091 1.749636,-4.82829 -2.504719,-4.864537 -3.233598,-16.684507 -1.074844,-17.430366 0.866078,-0.299234 1.25,0.818971 1.25,3.640726 0,5.944004 3.080409,13.100681 8.500633,19.749421 2.620586,3.214551 5.232542,6.868792 5.804348,8.120534 1.467642,3.212824 3.14015,2.217832 3.504284,-2.084734 0.226884,-2.680838 -0.607242,-5.32401 -3.131381,-9.922701 -3.964327,-7.222549 -4.967188,-10.682323 -3.693691,-12.742883 0.714258,-1.155694 1.120112,-0.881433 1.958391,1.323407 0.581579,1.529668 1.057416,3.399552 1.057416,4.155296 0,0.755745 1.756598,3.403671 3.90355,5.884281 5.343324,6.173729 5.846477,10.008685 2.637064,20.099319 -4.679121,14.711496 -2.920667,25.074216 5.693765,33.553846 7.343438,7.22851 14.156508,10.23234 24.431448,10.77164 11.05266,0.58012 15.37107,-1.07444 22.60864,-8.66228 8.47465,-8.88478 14.58848,-22.76922 16.71177,-37.952218 1.24168,-8.878873 0.52973,-14.381564 -2.56269,-19.807005 -2.88699,-5.065008 -5.13923,-6.577702 -14.43593,-9.695705 -8.27636,-2.775799 -13.98762,-6.794521 -13.98762,-9.842382 0,-1.89569 0.27562,-1.81896 3.43708,0.956834 2.24406,1.970311 5.45476,3.451799 9.25,4.268158 3.19711,0.6877 7.06364,1.869699 8.59229,2.626664 2.74573,1.359646 4.72063,1.04736 4.72063,-0.746461 0,-0.507647 -2.5306,-3.29359 -5.62356,-6.190983 -3.09295,-2.897393 -6.45807,-7.067988 -7.47803,-9.267988 -2.8219,-6.08665 -2.41076,-14.5 0.70858,-14.5 1.00736,0 1.39301,1.402446 1.39301,5.065741 0,7.329834 2.93769,11.856659 4.5,6.934259 0.34913,-1.1 1.27945,-2 2.06739,-2 1.04531,0 1.43261,1.302909 1.43261,4.819394 0,4.084496 0.6222,5.647495 4.08034,10.25 2.24419,2.986833 4.73835,6.682819 5.54259,8.213302 1.78384,3.394705 3.00596,2.80801 4.32215,-2.074918 0.99059,-3.674941 3.59962,-8.15056 11.80492,-20.250562 4.17312,-6.153921 4.2506,-6.422761 4.28327,-14.862252 l 0.0333,-8.594964 1.91192,2.293096 c 2.33581,2.801493 3.47622,9.689183 2.58656,15.621867 -0.46825,3.122568 -2.14263,6.370754 -5.71985,11.096154 -7.90944,10.448119 -10.92707,18.033078 -11.15524,28.039191 -0.19786,8.676907 0.92774,11.793649 3.51769,9.740316 0.71081,-0.563537 3.99238,-2.017025 7.29238,-3.229972 3.3,-1.212947 7.0125,-3.151241 8.25,-4.307319 3.12292,-2.917442 3.00102,-9.093753 -0.30954,-15.684948 -1.65802,-3.301039 -2.45052,-6.331219 -2.25,-8.603055 0.42547,-4.820615 2.05018,-4.802037 3.03195,0.03467 1.01537,5.002197 4.93975,12.611757 6.27613,12.169713 1.45334,-0.48073 2.57647,-11.17023 1.92467,-18.318222 -0.35407,-3.882922 -0.16617,-6.392317 0.50994,-6.810174 3.18779,-1.970165 5.23115,18.421408 2.77655,27.708385 -0.83582,3.162337 -1.12565,5.993227 -0.64406,6.290867 1.73697,1.073507 7.12194,-2.750195 10.24527,-7.274848 5.06182,-7.33288 8.42566,-10.888332 11.88805,-12.565219 5.12314,-2.481209 5.27268,-0.881132 0.3464,3.706436 -6.43951,5.996726 -6.11987,7.593062 1.52035,7.593062 6.03182,0 9.93426,1.1923 9.93426,3.035184 0,0.539686 -3.53971,0.964816 -8.03324,0.964816 -8.57189,0 -14.24412,2.014774 -20.5742,7.307951 -4.06018,3.395088 -10.51665,6.52274 -20.27272,9.820527 -15.33811,5.184656 -19.432,10.497872 -19.54903,25.371518 -0.0562,7.14234 0.36165,9.92883 2.02435,13.5 5.96537,12.81245 18.43504,16.73576 38.16124,12.00659 19.97085,-4.78781 28.31768,-13.60156 26.93217,-28.43871 -0.59869,-6.411171 -3.62717,-14.442103 -6.27477,-16.639414 -0.77759,-0.645343 -1.4138,-1.568251 -1.4138,-2.050907 0,-1.80561 2.51226,-0.773388 5.74601,2.360887 2.77972,2.694213 3.49937,2.988306 4.28229,1.75 0.51759,-0.818643 0.94797,-2.528808 0.95639,-3.800367 0.0242,-3.658172 4.61058,-12.403458 8.46306,-16.137432 1.93726,-1.877666 3.77132,-3.164908 4.07569,-2.860538 0.30437,0.304369 -0.84996,2.810936 -2.56519,5.570147 -3.88483,6.249399 -4.90408,10.550579 -4.93439,20.823081 -0.026,8.816053 0.47617,10.179113 2.93159,7.956983 2.39117,-2.163974 8.8548,-4.656348 9.47465,-3.653415 0.2954,0.47797 -1.28213,2.072942 -3.50563,3.544375 -3.82505,2.5313 -11.89418,13.58276 -11.91497,16.31872 -0.0114,1.50012 2.01101,1.58347 6.87448,0.28335 1.98881,-0.53166 7.17076,-1.64136 11.51545,-2.466 9.26112,-1.75781 14.38011,-4.7774 18.85044,-11.1195 1.72432,-2.44632 3.54729,-4.447846 4.05104,-4.447846 1.57145,0 -0.27131,5.310706 -3.35312,9.663476 -3.04916,4.30665 -3.67405,6.33652 -1.95067,6.33652 1.63946,0 9.00288,7.11545 9.00288,8.6997 0,0.80683 -0.3375,1.29745 -0.75,1.09025 -10.09174,-5.06891 -16.46737,-5.93375 -27.45078,-3.72362 -12.94059,2.60396 -31.33617,12.02936 -37.29192,19.10737 -9.32845,11.08622 -8.50968,22.45702 2.4163,33.55669 8.51305,8.64839 22.87935,14.63627 33.76072,14.07147 5.64052,-0.29277 5.82587,-0.39221 6.15417,-3.30186 0.18616,-1.65 0.78242,-3.53679 1.32502,-4.19286 1.94248,-2.34873 20.1464,-7.46416 31.44121,-8.83521 5.34821,-0.6492 7.07575,0.19398 9.43701,4.60605 1.6953,3.16769 3.05459,2.18135 2.80575,-2.03595 -0.2652,-4.49462 1.38947,-6.86371 7.50947,-10.7518 5.93469,-3.77035 21.10591,-9.29023 25.53392,-9.29023 3.74207,0 7.10913,1.92833 7.10913,4.07143 0,0.51071 0.70738,0.92857 1.57196,0.92857 1.31281,0 1.464,-0.86547 0.91711,-5.25 -0.5856,-4.69489 -0.40229,-5.48702 1.73362,-7.49166 3.02057,-2.83493 11.84842,-7.10228 22.77731,-11.01049 12.70995,-4.54512 14.65041,-4.72811 17.50266,-1.65048 3.3463,3.61071 5.53207,2.78909 7.12474,-2.67816 0.93711,-3.21685 2.09851,-4.92893 3.90057,-5.75 4.72305,-2.15197 29.44504,-1.10215 39.44922,1.6752 1.44607,0.40145 3.40384,2.34602 4.70337,4.67165 1.64233,2.93909 3.2219,4.29162 6.02281,5.15709 4.8527,1.49947 31.52269,1.669 38.49741,0.24471 16.8947,-3.45002 31.18877,-11.20972 35.58236,-19.3163 2.48373,-4.58271 2.45949,-24.567278 -0.0331,-27.323781 -1.79681,-1.987021 -2.28898,-5.924705 -0.98469,-7.878071 0.40408,-0.605163 1.77737,-1.649645 3.05175,-2.321072 1.90727,-1.004876 2.75684,-0.932619 4.80374,0.408563 3.45861,2.26617 3.92516,4.144694 2.02107,8.137626 -1.84601,3.871111 -2.24285,15.664275 -0.66662,19.810075 1.41722,3.72757 3.70227,3.17549 9.04337,-2.1849 4.24418,-4.2595 5.1049,-5.94473 8.3353,-16.3198 4.38624,-14.087444 7.5105,-18.738276 15.07323,-22.438374 3.06504,-1.499588 5.57281,-3.107882 5.57281,-3.573989 0,-0.466106 0.93018,-1.345281 2.06706,-1.953721 4.52026,-2.419173 9.74551,4.375539 6.29605,8.187148 -1.7909,1.97892 -2.95061,2.015336 -9.01076,0.282948 -2.76745,-0.791121 -9.83998,5.403744 -11.95879,10.474775 -2.07231,4.959738 -3.5872,12.144027 -2.92473,13.870397 0.44376,1.156412 1.19329,0.9582 3.79212,-1.002827 9.73888,-7.348747 16.05379,-9.265229 33.50775,-10.169109 8.96497,-0.464265 9.32101,-0.400158 10.86501,1.956281 1.46468,2.235376 1.46123,2.642429 -0.0417,4.936275 -2.02611,3.092225 -5.39253,3.231314 -9.02636,0.372938 -2.36065,-1.856883 -3.64415,-2.066735 -10.10471,-1.652122 -10.24519,0.657497 -17.1823,4.339671 -32.03793,17.00554 -22.8555,19.48654 -33.54202,26.61807 -49.92296,33.31556 -4.95,2.02385 -9.1875,3.85485 -9.41667,4.0689 -0.93247,0.87096 1.02224,1.50127 9.02115,2.90896 10.74529,1.89101 32.65112,1.92085 39.66386,0.054 14.83322,-3.94868 25.3815,-12.03888 31.25655,-23.97281 3.39572,-6.89768 5.16475,-17.74773 3.10156,-19.02285 -1.78448,-1.10287 -1.3114,-5.100794 0.83326,-7.04168 2.46954,-2.234906 6.64099,-1.369912 7.57427,1.570606 0.36701,1.156334 0.20039,3.967784 -0.37027,6.247674 -2.82319,11.27922 -4.20631,17.93598 -3.80918,18.33311 0.24162,0.24162 4.1982,-0.70016 8.79239,-2.09285 4.59419,-1.39269 12.11212,-3.17784 16.7065,-3.967 4.59437,-0.78916 8.84687,-1.9283 9.45,-2.53143 1.7622,-1.7622 4.53472,-1.26754 5.76341,1.0283 1.59592,2.982 -1.79234,7.54139 -5.19925,6.99635 -9.44495,-1.51102 -21.8738,1.1161 -35.49157,7.50196 -5.16522,2.42216 -14.37601,9.7658 -14.37601,11.4618 0,0.50325 4.1625,0.93104 9.25,0.95063 12.09116,0.0466 21.58277,2.32583 32.37416,7.77417 6.57293,3.31853 7.98532,5.18288 6.305,8.32258 -1.5893,2.96964 -6.05695,2.11672 -7.77522,-1.48436 -0.84763,-1.77642 -3.11319,-3.66207 -6.00739,-5 -4.22385,-1.9526 -6.23853,-2.1395 -22.14655,-2.05449 -14.85615,0.0794 -20.24257,0.5704 -35.65345,3.25 -9.98444,1.73609 -19.52038,3.15651 -21.19103,3.15651 -1.67064,0 -3.26867,0.37399 -3.55118,0.83109 -1.01325,1.63948 12.1294,5.19527 24.4641,6.61884 14.10667,1.62808 20.29237,3.38367 27.08607,7.68744 3.35721,2.12677 5.35384,2.77313 7.16335,2.31898 1.81558,-0.45569 3.10558,-0.0329 4.66873,1.53029 1.92248,1.92248 2.00641,2.39123 0.76336,4.26336 -0.76813,1.15687 -2.35307,2.73847 -3.52209,3.51467 -1.96632,1.30558 -2.49136,1.06905 -7.01089,-3.15845 -6.42816,-6.01278 -9.74985,-7.27102 -23.87757,-9.04471 -6.5117,-0.81752 -13.97695,-1.89521 -16.58945,-2.39485 -2.6125,-0.49965 -4.74563,-0.62905 -4.74029,-0.28755 0.005,0.34149 1.52121,2.522 3.36861,4.84559 1.8474,2.32358 4.39237,7.04858 5.6555,10.5 5.34768,14.61221 9.94707,21.15452 16.02218,22.79038 5.00473,1.34763 6.69515,4.18957 4.49202,7.55198 -2.63113,4.01561 -9.54802,2.36044 -9.54802,-2.28478 0,-0.86618 -2.05647,-3.77341 -4.56994,-6.46051 -2.51347,-2.6871 -5.68886,-7.45877 -7.05642,-10.6037 -5.48288,-12.60885 -6.58579,-14.53056 -11.12365,-19.3819 -4.75705,-5.08566 -15.46914,-11.4368 -17.3398,-10.28066 -0.59971,0.37064 0.0469,2.01049 1.59093,4.03485 5.50674,7.2197 8.40111,17.7632 8.48522,30.90964 0.064,10.00902 2.08976,16.19486 6.17987,18.87118 1.28358,0.8399 4.95035,2.20792 8.14836,3.04005 3.19802,0.83213 7.69802,2.37462 10,3.42775 2.30199,1.05314 5.52741,2.31571 7.16761,2.80572 4.29476,1.28306 5.68438,5.63319 2.74004,8.57752 -3.01187,3.01187 -7.29424,1.5502 -8.77296,-2.99442 -1.48762,-4.57193 -2.09536,-4.90975 -10.19926,-5.66935 -9.20554,-0.86285 -9.68582,0.80383 -1.75,6.07292 3.025,2.00848 5.5,3.98514 5.5,4.39256 0,0.40743 1.84962,2.59039 4.11026,4.85104 3.28631,3.2863 3.98746,4.59954 3.49768,6.55099 -1.45941,5.81473 -9.60794,3.34982 -9.60794,-2.90638 0,-3.60255 -0.0811,-3.68924 -11,-11.76319 -5.02919,-3.71881 -9.26047,-10.7065 -11.29348,-18.65047 -0.7322,-2.86107 -1.7532,-5.26619 -2.2689,-5.3447 -3.28403,-0.49997 -4.68635,15.44805 -2.02229,22.9988 2.34969,6.65974 6.23366,11.90502 10.27819,13.88064 4.04126,1.97402 5.24626,4.52204 3.26661,6.90738 -2.61103,3.1461 -7.96013,1.08918 -7.96013,-3.06095 0,-1.1621 -1.28986,-3.34867 -2.86636,-4.85906 -1.5765,-1.51038 -4.164,-5.30707 -5.75,-8.43709 -4.2265,-8.34111 -4.50518,-18.502 -0.87201,-31.79469 3.40735,-12.46651 3.13307,-20.23854 -1.00174,-28.38537 -5.83885,-11.50432 -20.68897,-22.30707 -39.40389,-28.66444 -12.28579,-4.17342 -15.08717,-4.24586 -17.24873,-0.44599 -2.24785,3.95157 -8.22202,5.09955 -26.53841,5.09955 h -14.58271 l -3.30092,-3.5 c -1.81551,-1.925 -3.55614,-3.5 -3.86808,-3.5 -0.31193,0 -0.56715,1.35 -0.56715,3 0,1.67208 -0.8901,3.8901 -2.01088,5.01088 -2.89723,2.89723 -30.49517,16.11318 -34.87469,16.7006 -2.63456,0.35337 -4.08,0.0349 -5.02836,-1.10778 -0.73203,-0.88203 -1.99041,-1.6037 -2.79641,-1.6037 -1.15343,0 -1.32287,0.84396 -0.79579,3.96369 0.57938,3.42934 0.31542,4.31792 -1.95797,6.59131 -3.50728,3.50729 -24.95483,13.62518 -30.1151,14.20682 -3.55466,0.40066 -4.38445,0.0998 -6.24332,-2.26332 -2.59335,-3.29691 -4.67598,-2.75598 -5.51359,1.43205 -0.70682,3.53412 -1.24682,3.8045 -16.16389,8.09337 -16.71495,4.80578 -24.68971,5.10444 -26.00074,0.97376 -0.57332,-1.80638 -1.51586,-1.99768 -9.84288,-1.99768 -5.06487,0 -13.02204,-0.48655 -17.68261,-1.08122 -13.25387,-1.69114 -25.92319,-1.53459 -29.57533,0.36545 -4.52952,2.35651 -9.14751,8.07195 -10.46554,12.95264 -1.78343,6.60409 -0.72991,19.3872 2.04058,24.75975 2.69246,5.22123 3.96663,6.39064 9.85943,9.04884 3.02078,1.36265 6.53381,1.95454 11.60077,1.95454 3.99733,0 8.79752,0.50911 10.6671,1.13135 3.37801,1.12429 6.68217,3.49092 5.8397,4.18273 -0.69071,0.56718 -28.11394,-1.06163 -31.24123,-1.85558 -2.67721,-0.67969 -2.77083,-0.5842 -2.12257,2.16522 1.04687,4.43998 6.26269,13.83231 9.54693,17.19151 1.62574,1.66284 7.03972,5.13257 12.03108,7.7105 9.40466,4.85732 16.84531,10.65813 16.84531,13.13279 0,1.07268 -1.05256,0.81736 -4.25,-1.0309 -4.35478,-2.51726 -14.50027,-5.8988 -15.62341,-5.20736 -0.34462,0.21216 -0.36839,5.2669 -0.0528,11.23274 0.31557,5.96585 0.43895,11.02363 0.27417,11.2395 -0.16479,0.21588 -0.97778,-0.17033 -1.80666,-0.85824 -2.08174,-1.7277 -3.52907,-7.48379 -3.5357,-14.06175 -0.006,-5.93881 -0.72901,-7.42295 -7.29404,-14.97251 -2.15224,-2.475 -5.03556,-6.4125 -6.40737,-8.75 -1.37182,-2.3375 -2.8899,-4.25 -3.37351,-4.25 -1.79043,0 -3.93066,6.06058 -3.93066,11.13062 0,4.38609 0.63289,6.20929 3.92248,11.29966 2.15736,3.33835 4.0668,6.74472 4.24321,7.56972 0.5906,2.76208 -1.28019,2.12586 -3.51939,-1.19689 -3.19168,-4.73613 -5.25198,-4.77113 -6.07462,-0.10319 -1.4198,8.05641 -3.96767,13.65963 -9.14286,20.10678 -2.95504,3.68131 -5.64399,8.0433 -5.97546,9.6933 -1.03513,5.1527 -1.55762,6.5 -2.52075,6.5 -0.51295,0 -0.93263,-1.82958 -0.93263,-4.06574 z"
       style="fill:#e2959b" />
    <path
       id="path4537"
       d="m 79.769558,313.75051 c 0,-1.375 0.226973,-1.9375 0.504386,-1.25 0.277412,0.6875 0.277412,1.8125 0,2.5 -0.277413,0.6875 -0.504386,0.125 -0.504386,-1.25 z m 0.872731,-5 c 0,-0.825 0.436218,-2.175 0.969374,-3 0.861666,-1.33333 0.969374,-1.33333 0.969374,0 0,0.825 -0.436218,2.175 -0.969374,3 -0.861666,1.33333 -0.969374,1.33333 -0.969374,0 z m 42.048321,-6.58333 c 0.048,-1.16495 0.28494,-1.4019 0.60416,-0.60417 0.28887,0.72187 0.25335,1.58438 -0.0789,1.91667 -0.3323,0.33229 -0.56864,-0.25834 -0.52522,-1.3125 z m 99.02073,-6.97554 c -0.0639,-4.52196 -0.62734,-7.7565 -1.56788,-9 -2.08757,-2.76002 -1.96198,-6.44895 0.2182,-6.40933 0.9625,0.0175 2.63159,0.6984 3.70909,1.51314 1.94314,1.46926 1.94273,1.49769 -0.0502,3.49064 -1.68798,1.68797 -1.91628,2.85452 -1.42759,7.29438 0.31996,2.90679 0.27491,6.38419 -0.10009,7.72756 -0.42386,1.51835 -0.71954,-0.2283 -0.78151,-4.61639 z m -100.59968,2.55887 c -0.37544,-1.1829 -0.45761,-2.37572 -0.18261,-2.65072 0.275,-0.275 0.80717,0.46782 1.18261,1.65072 0.37544,1.1829 0.45761,2.37572 0.18261,2.65072 -0.275,0.275 -0.80717,-0.46782 -1.18261,-1.65072 z m -35.999997,0 c 0.339919,-0.55 0.816476,-1 1.059017,-1 0.242541,0 0.440983,0.45 0.440983,1 0,0.55 -0.476558,1 -1.059017,1 -0.582459,0 -0.780902,-0.45 -0.440983,-1 z m 109.867327,-6.5 c 0.12163,-4.58409 0.33369,-5 2.54934,-5 3.31797,0 3.80454,2.2753 0.73604,3.44194 -1.64254,0.62449 -2.66677,1.92248 -2.96395,3.75615 -0.24975,1.54105 -0.39439,0.55191 -0.32143,-2.19809 z m -76.19262,-8.25 c -0.15373,-6.37952 0.0414,-7.25 1.62529,-7.25 1.86879,0 4.2,1.7899 4.2,3.22475 0,0.45361 -1.09808,1.24224 -2.44018,1.75251 -1.96065,0.74544 -2.51586,1.77227 -2.82529,5.22525 -0.25896,2.88968 -0.44235,1.92248 -0.55982,-2.95251 z m -25.138744,3.12244 c -0.05389,-3.18824 -2.525758,-4.71692 -6.566835,-4.06114 -4.869966,0.79028 -3.49652,-0.76373 2.046646,-2.31572 3.441325,-0.96351 5.17338,-1.00261 7.025761,-0.15861 3.053999,1.3915 3.053005,1.92559 -0.01054,5.66303 -2.244886,2.7387 -2.462203,2.81469 -2.495033,0.87244 z m 139.464034,-0.37244 c -0.33992,-0.55 -0.14148,-1 0.44098,-1 0.58246,0 1.05902,0.45 1.05902,1 0,0.55 -0.19844,1 -0.44098,1 -0.24254,0 -0.7191,-0.45 -1.05902,-1 z m -39.5,-5.46482 c 0,-3.94102 -2.62454,-6.04423 -6.28777,-5.0388 -2.17903,0.59807 -2.18221,0.58412 -0.21223,-0.92934 9.29632,-7.14197 12.86366,-13.51495 12.32248,-22.01393 -0.50996,-8.00885 -5.36139,-20.72356 -9.84737,-25.80817 -3.04402,-3.45022 -4.21787,-4.06185 -8.60452,-4.48335 -6.10543,-0.58666 -13.37102,1.36268 -24.73476,6.63627 -9.26227,4.29836 -14.46545,9.27489 -19.49761,18.64833 -3.89292,7.25136 -6.78444,11.14092 -7.64356,10.2818 -0.35317,-0.35317 0.0661,-2.0116 0.9316,-3.6854 0.86556,-1.6738 1.57374,-3.75099 1.57374,-4.61598 0,-1.41286 -0.25411,-1.40622 -2.5,0.0653 -3.40009,2.22782 -3.14713,0.90132 0.5292,-2.775 5.00291,-5.00291 6.41533,-8.5951 6.44441,-16.38999 0.0227,-6.07354 -0.36364,-7.6624 -2.73372,-11.24384 -1.51806,-2.29394 -4.44306,-5.22949 -6.5,-6.52345 -6.73472,-4.23659 -10.69312,-4.98348 -23.17722,-4.3732 -9.588389,0.46872 -11.262837,0.34489 -9.806667,-0.72525 3.084512,-2.26682 13.329497,-3.87989 20.182667,-3.17776 18.21311,1.86599 25.46706,9.24555 26.51105,26.97012 0.0277,0.46948 1.71492,-0.60798 3.74947,-2.39434 9.2112,-8.08754 35.35509,-14.64172 43.50376,-10.90624 1.26338,0.57915 3.25041,2.40206 4.41562,4.05091 l 2.11856,2.9979 0.46516,-8.03532 c 0.36572,-6.31761 1.0934,-9.26375 3.40399,-13.78175 5.49543,-10.74546 12.51259,-12.53351 38.39816,-9.78428 11.71187,1.24389 17.54574,1.47916 19.5876,0.78993 2.62561,-0.88626 2.22829,-1.05209 -4.09204,-1.70795 -17.18453,-1.78324 -26.62676,-5.57877 -35.19579,-14.1478 -12.01232,-12.01233 -13.41206,-24.15676 -4.1888,-36.3428 2.11964,-2.80052 3.69237,-5.09185 3.49496,-5.09185 -0.1974,0 -2.15097,0.63227 -4.34125,1.40505 -9.84384,3.47311 -24.3321,2.82466 -34.26912,-1.53377 -8.71638,-3.82306 -14.5987,-11.6873 -15.70052,-20.99049 l -0.5901,-4.98243 -3.10292,6.26035 c -3.99906,8.06839 -11.95051,16.19382 -19.00965,19.4256 -5.8952,2.69891 -12.6868,3.29274 -22.35179,1.95435 l -5.25498,-0.72771 2.10609,4.84453 c 4.62366,10.63554 6.20669,29.89075 3.36124,40.88442 -1.9069,7.36751 -5.32221,11.72186 -13.49621,17.20702 -8.69552,5.83513 -16.027004,8.44336 -24.210578,8.61309 -4.582031,0.095 -6.789748,0.54139 -6.875,1.38999 -0.06907,0.6875 -0.181829,1.7752 -0.250579,2.41712 -0.06875,0.64191 -1.096514,1.23869 -2.283921,1.32617 -1.914549,0.14105 -2.096765,-0.22397 -1.609802,-3.22477 0.438306,-2.70096 0.117225,-3.68633 -1.591079,-4.88288 -1.177109,-0.82442 -2.140198,-2.22692 -2.140198,-3.11661 0,-1.3082 0.464195,-1.18152 2.426878,0.66233 2.202541,2.06917 3.196253,2.24692 10.75,1.9228 7.163729,-0.30739 9.436913,-0.88868 16.318878,-4.17304 9.533051,-4.54957 11.013441,-5.78698 14.022861,-11.72128 3.09799,-6.10893 4.48378,-14.29231 4.46951,-26.39345 -0.0194,-16.43883 -3.15996,-24.47612 -12.58041,-32.19548 l -4.723885,-3.87086 h -9.352971 c -7.071534,0 -9.235966,-0.30491 -8.873301,-1.25 0.263819,-0.6875 0.04379,-1.25 -0.488945,-1.25 -0.532738,0 -0.968615,-0.45 -0.968615,-1 0,-0.55 2.00747,-1 4.461045,-1 3.248365,0 4.99449,-0.57259 6.42341,-2.10635 2.154577,-2.31267 4.115545,-1.80837 4.115545,1.05838 0,1.93008 2.529571,3.45674 4.109584,2.48024 0.511004,-0.31581 3.206744,1.09773 5.990533,3.14122 8.22986,6.04128 15.08597,8.37527 24.68312,8.40277 6.8335,0.0196 9.12761,-0.40413 13.1076,-2.42095 9.26304,-4.69393 17.21115,-16.23166 23.11559,-33.555306 1.21847,-3.575 2.95503,-7.175 3.85901,-8 0.90398,-0.825 2.66478,-2.665409 3.91289,-4.089797 2.12792,-2.428463 2.17475,-2.771091 0.75164,-5.5 -1.71898,-3.29627 -2.03689,-6.841528 -0.52997,-5.910203 0.55,0.339919 1,1.475644 1,2.523833 0,2.420415 3.63479,4.524153 5.35298,3.098186 1.57028,-1.303224 16.51307,-6.825824 19.69243,-7.277988 1.8234,-0.259323 2.47021,-1.021146 2.6269,-3.094031 0.13781,-1.823159 -0.27749,-2.75 -1.23222,-2.75 -0.97667,0 -1.44009,-1.116205 -1.44009,-3.468615 0,-2.527394 0.37204,-3.325849 1.37106,-2.94249 2.68965,1.032114 4.62752,-2.465822 4.65935,-8.410324 0.0196,-3.651391 0.33485,-5.14309 0.88322,-4.178571 0.92774,1.631811 -0.50441,14.36685 -1.91129,16.995637 -0.98648,1.843246 -0.29258,3.243972 2.311,4.665024 1.61619,0.88213 1.38651,1.272199 -2.11258,3.587782 -2.15925,1.428925 -7.92525,4.004196 -12.81333,5.722823 -17.34882,6.099761 -20.76895,10.544937 -20.79598,27.02873 -0.0107,6.53748 0.47931,10.61414 1.57139,13.07273 5.67048,12.7659 18.74914,17.44256 37.65664,13.46524 18.01883,-3.79037 28.13395,-11.3761 29.77669,-22.33073 0.66998,-4.4677 -0.56234,-15.593621 -2.18279,-19.707236 -0.69859,-1.773436 -0.59815,-1.845724 0.88665,-0.638124 2.65386,2.158392 4.50258,0.637249 5.24535,-4.315923 1.21432,-8.09767 2.00962,-5.666989 1.61692,4.941775 -0.35908,9.700198 -0.25388,10.392888 1.74047,11.460238 1.72684,0.92417 1.92725,1.50112 1.07476,3.09402 -0.57634,1.0769 -1.68051,1.95801 -2.4537,1.95801 -1.75669,0 -2.09997,0.60578 -2.91936,5.1517 -0.50253,2.78797 -0.23793,4.07139 1.11866,5.42608 0.97728,0.97592 1.82546,2.54376 1.88486,3.4841 0.0898,1.42112 -0.5499,1.62147 -3.7896,1.18694 -3.05624,-0.40993 -4.19443,-0.11682 -5.27274,1.35787 -0.83997,1.14873 -0.99593,2.11502 -0.40074,2.48287 0.53593,0.33123 -0.28992,1.42696 -1.83524,2.43497 -5.44645,3.55271 -14.61054,13.02259 -16.42731,16.97547 -6.81637,14.83084 5.21044,32.51396 27.35142,40.215 7.68342,2.67244 17.09363,3.67704 20.01622,2.13687 1.14866,-0.60534 1.75,-2.104 1.75,-4.36137 0,-2.74922 0.55167,-3.7171 2.75,-4.82474 5.01462,-2.52665 19.12766,-6.15464 28.20858,-7.25149 5.39271,-0.65136 5.4967,-0.61391 8.61794,3.10384 3.85124,4.58726 5.91933,3.98422 5.0469,-1.47165 -0.50528,-3.15986 -0.19138,-4.07056 2.14228,-6.21525 6.0239,-5.53612 22.30499,-12.73082 29.44175,-13.01047 3.41043,-0.13363 4.49124,0.31774 6.35368,2.65346 1.46187,1.83337 2.80516,2.59922 3.85342,2.19696 1.31334,-0.50397 1.49538,-1.58775 0.99008,-5.89434 -0.51386,-4.37943 -0.3033,-5.55956 1.23811,-6.93941 4.72234,-4.22735 24.90576,-12.62615 34.52116,-14.36508 3.0717,-0.55551 3.84315,-0.32767 4.77292,1.40961 2.83349,5.29442 8.06318,4.61351 8.06318,-1.04984 0,-1.77011 0.96813,-3.89114 2.45455,-5.37755 2.31333,-2.31334 3.09774,-2.45455 13.6347,-2.45455 9.61203,0 16.59212,0.68235 26.65251,2.60544 1.48122,0.28315 3.09843,2.11908 4.76685,5.41154 1.38879,2.74066 3.17838,4.98302 3.97685,4.98302 0.79847,0 1.23912,0.5625 0.97921,1.25 -0.32464,0.85874 3.83254,2.48442 13.28138,5.19374 14.27478,4.09308 23.54798,8.24504 30.22363,13.53224 3.49834,2.77074 3.99331,2.91256 4.8462,1.38854 1.18621,-2.11964 6.92764,-2.06563 11.12451,0.10465 4.62125,2.38975 5.70001,1.8087 2.6168,-1.40947 -5.46385,-5.70303 -1.46195,-8.05198 13.75791,-8.07532 15.70267,-0.0241 28.01962,-3.77095 37.11213,-11.28964 2.79002,-2.30711 5.23119,-4.55749 5.4248,-5.00084 0.19362,-0.44336 1.1509,-1.56836 2.12728,-2.5 3.8208,-3.64571 9.02069,-17.8272 9.02069,-24.60181 0,-1.44058 0.5625,-3.57192 1.25,-4.73631 1,-1.69367 1,-2.20762 0,-2.56976 -2.1516,-0.77919 -1.36232,-2.441069 1,-2.105567 2.76652,0.392909 2.83966,3.170637 0.35073,13.319547 -3.06296,12.48953 -3.11375,13.5 -0.67859,13.5 1.17752,0 4.83787,-0.90853 8.13411,-2.01895 9.19956,-3.09911 19.83184,-5.07639 25.61581,-4.76376 4.99951,0.27023 5.16985,0.37098 3.85956,2.28271 -0.75393,1.1 -1.96947,1.81549 -2.7012,1.58998 -4.06475,-1.25273 -8.7547,-1.14266 -15.15213,0.3556 -14.58872,3.41665 -30.42432,11.00115 -34.50181,16.52475 -3.64121,4.93258 -1.91296,6.02967 9.49856,6.02967 10.58156,0 20.95404,2.0252 28.8226,5.62755 4.37465,2.00278 5.35714,2.92967 5.71903,5.39533 0.55178,3.75952 -1.84255,4.09133 -3.22799,0.44734 -0.61151,-1.60838 -2.69677,-3.32013 -5.72525,-4.69973 -4.3391,-1.97664 -6.3669,-2.16585 -22.76343,-2.12398 -15.49426,0.0396 -20.56658,0.485 -36.4371,3.19973 -10.14041,1.73457 -19.81541,3.16065 -21.5,3.16907 -3.62081,0.0181 -6.07723,1.34347 -5.18015,2.79497 1.38687,2.244 19.15578,6.82331 30.11725,7.76165 3.85,0.32957 9.475,1.27949 12.5,2.11092 6.60387,1.81511 16.71144,7.83261 17.53969,10.44219 0.32729,1.03123 1.04132,1.87496 1.58671,1.87496 0.5454,0 0.71352,0.45 0.3736,1 -1.05515,1.70726 -2.28803,1.13604 -6.30495,-2.92123 -5.29927,-5.35249 -9.02792,-6.68347 -23.90445,-8.5329 -7.03483,-0.87457 -14.73192,-2.03891 -17.10465,-2.58742 -7.31032,-1.68997 -8.00319,0.16212 -2.43595,6.51147 2.21088,2.52146 5.11518,7.78643 7.0762,12.82781 5.24825,13.49224 11.51982,21.70227 16.57817,21.70227 0.8776,0 1.59563,0.49814 1.59563,1.10699 0,0.60884 -0.675,0.84797 -1.5,0.53138 -0.91371,-0.35062 -1.5,-0.002 -1.5,0.89301 0,1.32555 1.19876,1.91092 3.25,1.58704 1.39223,-0.21982 0.76283,1.66268 -0.75,2.24321 -2.45984,0.94392 -4.56475,-0.4354 -5.15302,-3.37671 -0.30388,-1.5194 -2.73627,-4.91347 -5.40533,-7.54239 -3.62916,-3.57459 -5.66431,-6.8176 -8.07107,-12.86119 -5.31141,-13.3375 -10.86537,-20.01131 -20.87425,-25.0832 -5.9285,-3.0042 -7.1609,-3.07876 -9.43079,-0.57057 -1.6711,1.84656 -1.59878,2.19334 1.7206,8.25 4.71871,8.60994 5.9398,14.20671 4.80548,22.02549 -0.50244,3.46332 -1.20405,7.0253 -1.55913,7.91552 -0.44312,1.11092 -5.8e-4,1.78725 1.41095,2.15638 1.23931,0.32409 2.05656,1.35984 2.05656,2.60642 0,1.7474 -0.44855,1.97891 -2.88855,1.49091 -2.63796,-0.52759 -2.99697,-0.24921 -4.13822,3.20883 -1.76051,5.33438 -1.47906,16.3799 0.57494,22.56392 1.18026,3.55341 3.30174,6.80011 6.59585,10.09422 2.67079,2.67079 4.85598,5.47205 4.85598,6.22503 0,0.75297 0.5625,1.57915 1.25,1.83595 0.84558,0.31585 0.67969,0.70254 -0.51273,1.19521 -2.03885,0.84238 -4.73727,-1.01736 -4.73727,-3.2649 0,-0.83851 -1.59347,-3.46919 -3.54105,-5.84595 -8.91744,-10.88256 -10.5589,-21.9063 -5.84072,-39.22516 5.19917,-19.08442 1.49183,-30.96831 -13.54476,-43.4177 -6.28494,-5.20356 -19.86336,-12.03018 -30.12507,-15.14555 -10.93562,-3.31996 -13.71163,-3.34915 -14.92528,-0.15699 -1.67081,4.39456 -4.31443,5.00144 -23.49964,5.39466 l -17.97653,0.36844 -3.14142,-3.74178 c -3.57387,-4.25689 -5.40553,-3.92969 -5.40553,0.96561 0,3.94726 -2.36262,5.7143 -17.2731,12.91876 -17.57698,8.49287 -19.85525,9.12859 -23.22251,6.47991 -3.88114,-3.05291 -5.60219,-1.81746 -4.87356,3.49847 0.56569,4.12717 0.39616,4.54967 -2.76409,6.88827 -1.85171,1.37027 -7.41674,4.38991 -12.36674,6.71031 -4.95,2.3204 -9.7321,4.60645 -10.62689,5.08012 -0.89479,0.47367 -3.21295,1.15876 -5.15145,1.52242 -3.14615,0.59023 -3.77331,0.32477 -5.84144,-2.47253 -2.99503,-4.05099 -6.23546,-3.83485 -6.71871,0.44814 -0.41207,3.65223 -1.52743,5.1115 -4.44205,5.81176 -1.2207,0.29328 -6.26946,1.6912 -11.21946,3.10648 -4.95,1.41529 -12.46746,2.86532 -16.70547,3.22229 -7.62644,0.64238 -7.71783,0.62191 -8.91052,-1.99575 -1.17468,-2.57816 -1.43467,-2.64478 -10.32076,-2.64478 -5.01365,0 -12.92891,-0.48655 -17.58948,-1.08122 -13.77617,-1.75779 -25.89314,-1.54325 -29.97377,0.5307 -8.63343,4.38787 -11.78386,10.71623 -12.22192,24.55052 -0.31686,10.00659 3.28675,20.14494 8.22861,23.15026 l 3.28741,1.99919 -2.78674,1.68561 c -1.76205,1.06581 -2.89398,2.69153 -3.0784,4.42132 -0.16043,1.50465 -0.57789,3.6375 -0.92771,4.73967 -0.49644,1.56416 -0.18231,2.00395 1.43136,2.00395 1.17101,0 2.06739,0.65037 2.06739,1.5 0,1 -1,1.5 -3,1.5 -1.65,0 -3,0.41538 -3,0.92308 0,0.50769 -1.38462,2.30769 -3.07692,4 -2.16761,2.1676 -2.6109,3.07692 -1.5,3.07692 1.16759,0 1.57692,1.01708 1.57692,3.91821 0,2.15502 -0.27314,4.63002 -0.60699,5.5 -1.05886,2.75935 -2.39301,1.70952 -2.39301,-1.88303 z m -72,-7.95177 c 0,-0.77913 -1.2375,-2.32639 -2.75,-3.43837 -2.71082,-1.99297 -2.72151,-2.04357 -0.75,-3.5516 2.75727,-2.10908 6.91489,-2.11701 6.10699,-0.0116 -0.33385,0.86998 -0.60699,3.11998 -0.60699,5 0,1.88001 -0.45,3.41821 -1,3.41821 -0.55,0 -1,-0.63747 -1,-1.41659 z m -4,-13.58341 c -0.65928,-1.23188 -2.09382,-2 -3.73518,-2 -3.25368,0 -1.87717,-1.6922 1.73518,-2.13313 3.39183,-0.41402 5,0.7735 5,3.69215 0,2.95437 -1.53418,3.17988 -3,0.44098 z m 420.57143,-7.57143 c -0.86429,-0.86428 -1.57143,-2.78916 -1.57143,-4.27749 0,-3.67925 -2.14275,-6.45866 -7.31693,-9.49093 -6.32514,-3.70678 -11.32628,-9.71961 -13.12663,-15.78206 -0.85604,-2.8826 -1.55644,-5.83442 -1.55644,-6.55959 0,-1.67924 1.99248,-1.74674 2.02196,-0.0685 0.0121,0.6875 0.91403,3.21599 2.00432,5.61886 1.66427,3.66781 2.22023,4.17144 3.46472,3.13861 1.1791,-0.97856 3.25897,-0.9007 10.16633,0.38058 4.77618,0.88596 9.39467,2.23286 10.26332,2.99311 0.86864,0.76026 2.54326,1.67541 3.72138,2.03368 1.17812,0.35827 2.37397,1.53835 2.65746,2.62241 0.35518,1.35822 1.03791,1.77051 2.19597,1.32612 1.3301,-0.51041 1.61005,-0.14635 1.34254,1.74587 -0.25194,1.78201 -0.9648,2.39076 -2.79966,2.39076 -2.35919,0 -2.90679,-0.67846 -6.05329,-7.5 -0.41551,-0.9008 -2.84765,-1.79711 -6.08847,-2.24376 -2.96812,-0.40907 -6.29658,-0.90989 -7.39658,-1.11294 -2.57699,-0.47567 -5.5,1.03017 -5.5,2.83344 0,0.7735 2.66967,3.46063 5.9326,5.97139 6.81688,5.24548 10.0674,9.01883 10.0674,11.68673 0,1.02583 0.675,1.86514 1.5,1.86514 1.99134,0 1.92815,2.62173 -0.0818,3.39301 -2.11715,0.81243 -2.05411,0.82823 -3.84678,-0.96444 z m -326.46661,-0.51344 c -1.31735,-0.52695 -2.16726,-1.18602 -1.88869,-1.46459 0.27857,-0.27857 1.8064,-0.002 3.39518,0.61569 1.75217,0.68068 5.64276,0.89013 9.88869,0.53236 3.97783,-0.33519 7.64761,-0.1666 8.5,0.39047 2.00325,1.30921 -16.61034,1.24004 -19.89518,-0.0739 z M 79.319925,245.50326 c -1.948521,-0.66114 -2.502449,-1.29581 -1.833956,-2.1013 0.52678,-0.63473 1.178899,-4.75347 1.449154,-9.15275 0.559805,-9.11266 1.018591,-12.17408 1.96646,-13.12195 0.365197,-0.3652 0.406318,4.14016 0.09138,10.0119 -0.404321,7.53819 -0.222809,11.09739 0.617583,12.11 1.866123,2.24854 0.796152,3.30146 -2.290621,2.2541 z m -49.250772,-4.67983 c 0.591897,-3.60079 1.199378,-4.74939 2.05786,-3.8909 0.283442,0.28344 -0.190374,2.04594 -1.052927,3.91666 l -1.568276,3.40132 z m 24.70094,-7.82292 c -0.131239,-6.83406 -0.507949,-8.59952 -2.194905,-10.28647 -2.249558,-2.24956 -1.828779,-3.96353 0.973047,-3.96353 2.388934,0 4.463472,2.55018 3.421687,4.2062 -0.447657,0.71159 -1.090104,5.1188 -1.42766,9.7938 l -0.613739,8.5 z M 37.27833,226.08384 c -0.366667,-0.36666 -0.666667,-1.49166 -0.666667,-2.5 0,-1.37037 0.757576,-1.83333 3,-1.83333 3.338607,0 3.785235,1.07191 1.428571,3.42857 -1.701931,1.70193 -2.719905,1.94676 -3.761904,0.90476 z m -3.854167,-5.01644 c 0.721875,-0.28887 1.584375,-0.25335 1.916667,0.0789 0.332291,0.33229 -0.258334,0.56864 -1.3125,0.52522 -1.164943,-0.048 -1.4019,-0.28494 -0.604167,-0.60416 z m 45.4375,-5.95776 c -2.901852,-3.13359 -2.834828,-3.55927 0.5,-3.17555 2.159969,0.24853 2.817891,0.90645 3.066422,3.06642 0.381493,3.31552 -0.57019,3.34465 -3.566422,0.10913 z m -17.25,0.64087 c 1.975857,-1.2769 5.289166,-1.2769 4.5,0 -0.339919,0.55 -1.828976,0.99311 -3.309017,0.98469 -2.104766,-0.012 -2.364216,-0.22649 -1.190983,-0.98469 z m 454.349407,-18 c 0,-4.675 0.17226,-6.5875 0.3828,-4.25 0.21053,2.3375 0.21053,6.1625 0,8.5 -0.21054,2.3375 -0.3828,0.425 -0.3828,-4.25 z m -367.53614,4.12719 c -9.88821,-3.97886 -14.46438,-8.35729 -17.90073,-17.12719 -5.57105,-14.21789 5.02574,-30.86858 22.58746,-35.49155 15.07864,-3.96932 33.72144,4.2429 40.72389,17.93901 2.51876,4.92645 2.05566,14.14803 -1.00851,20.08195 -2.43321,4.71205 -9.32006,11.52864 -14.21538,14.07036 -5.3142,2.75921 -23.83609,3.08282 -30.18673,0.52742 z m -92.248506,-5.02241 c -0.304301,-0.49236 0.183549,-1.17796 1.084111,-1.52353 1.946845,-0.74708 2.808937,-0.13102 1.892247,1.35222 -0.803677,1.30037 -2.227897,1.38235 -2.976358,0.17131 z m 4.534919,-9.35478 c 0.07088,-5.1555 0.330982,-6.52776 0.90032,-4.75 1.167143,3.64441 1.167143,12 0,12 -0.583879,0 -0.958521,-3.01688 -0.90032,-7.25 z M 502.42416,149.0674 c 0.72187,-0.28887 1.58438,-0.25335 1.91667,0.0789 0.33229,0.33229 -0.25834,0.56864 -1.3125,0.52522 -1.16495,-0.048 -1.4019,-0.28494 -0.60417,-0.60416 z m -12.5625,-2.34805 c -4.03426,-1.62158 -2.63512,-5.08431 2.75,-6.80594 13.33733,-4.26397 17.23632,-5.76493 23,-8.85416 3.575,-1.91613 8.15727,-5.08128 10.18281,-7.03365 3.1157,-3.00314 3.85584,-4.57558 4.80641,-10.21119 1.06556,-6.31732 0.10495,-21.484479 -1.52806,-24.126739 -0.31856,-0.515436 0.0742,-0.937157 0.87283,-0.937157 1.86836,0 3.04391,-3.022096 1.69879,-4.367217 -1.68595,-1.685955 -1.18207,-2.794096 1.11509,-2.452334 3.56756,0.530765 4.63354,3.365489 2.60213,6.919744 -1.25821,2.201434 -1.75,5.268979 -1.75,10.915747 0,12.101556 2.16319,15.502386 7.95547,12.507076 5.82691,-3.0132 9.66906,-9.80034 13.58224,-23.99292 2.27707,-8.258648 4.8678,-12.974875 8.75689,-15.941224 4.549,-3.469694 11.03056,-6.113385 11.50424,-4.692338 0.48856,1.465666 3.49703,1.407596 5.00116,-0.09653 0.93333,-0.933333 1.2,-0.724226 1.2,0.940983 0,2.956259 -1.59936,3.667607 -5.04095,2.242057 -8.33895,-3.454107 -17.22322,6.258813 -19.478,21.294732 -0.9938,6.627158 0.79099,6.891932 8.92397,1.323877 3.63977,-2.491882 8.52513,-5.109159 10.85637,-5.816171 5.47424,-1.660219 21.25575,-1.668338 22.9123,-0.01179 0.67447,0.674468 2.30945,1.226308 3.6333,1.226308 1.78402,0 2.24989,0.409395 1.8,1.581787 -0.33385,0.869984 -0.60699,1.769984 -0.60699,2 0,1.362543 -4.99995,0.07356 -6.59501,-1.700182 -1.73413,-1.92839 -2.67511,-2.075028 -10.49121,-1.634887 -12.71072,0.715767 -16.21206,2.709855 -40.06659,22.818728 -10.04098,8.46434 -14.13727,11.5438 -23.84719,17.92755 -6.70729,4.40968 -23.01335,12.007 -25.77052,12.007 -2.49067,0 -4.63932,2.4896 -3.87274,4.48727 0.64796,1.68856 -0.70825,1.8476 -4.10674,0.48157 z M 68.626976,145.55953 c 0.0084,-0.71996 0.451531,-1.98402 0.984687,-2.80902 0.788086,-1.21948 0.972238,-1.09025 0.984687,0.69098 0.0084,1.20504 -0.434687,2.4691 -0.984687,2.80902 -0.55,0.33992 -0.993109,0.029 -0.984687,-0.69098 z m 394.984684,-3.80902 c -1.56804,-0.50218 1.787,-0.8116 9,-0.83003 7.27229,-0.0186 10.76475,0.28655 9.5,0.83003 -2.49999,1.07428 -15.14556,1.07428 -18.5,0 z M 70.160061,135.34422 c 0.500679,-2.66885 0.190711,-3.8546 -1.431769,-5.47708 -2.018624,-2.01863 -2.02281,-2.09647 -0.166153,-3.09013 3.534177,-1.89143 5.254962,-0.24126 4.542045,4.35565 -0.918636,5.92339 -1.498124,7.61785 -2.605222,7.61785 -0.570905,0 -0.711958,-1.41772 -0.338901,-3.40629 z m -39.548398,0.40629 c 0.825,-0.53316 1.95,-0.96937 2.5,-0.96937 0.55,0 0.325,0.43621 -0.5,0.96937 -0.825,0.53316 -1.95,0.96937 -2.5,0.96937 -0.55,0 -0.325,-0.43621 0.5,-0.96937 z m 18.75,-0.66228 c 0.6875,-0.27741 1.8125,-0.27741 2.5,0 0.6875,0.27741 0.125,0.50439 -1.25,0.50439 -1.375,0 -1.9375,-0.22698 -1.25,-0.50439 z m -12.0375,-1.45022 c 0.789474,-0.78947 1.936397,-0.8124 3.95,-0.0789 2.805994,1.02208 2.793641,1.03443 -1.1125,1.1125 -2.899625,0.058 -3.654167,-0.21688 -2.8375,-1.03355 z m -1.94171,-6.1375 c -0.236829,-2.3375 -0.760785,-5.15 -1.164347,-6.25 -0.41782,-1.13886 -0.09855,-0.91483 0.741504,0.52033 1.946332,3.32512 3.189292,9.97967 1.864038,9.97967 -0.555829,0 -1.204367,-1.9125 -1.441195,-4.25 z m 212.729207,-7.75 c 0.33992,-0.55 1.04148,-1 1.55902,-1 0.51754,0 0.94098,0.45 0.94098,1 0,0.55 -0.70156,1 -1.55902,1 -0.85746,0 -1.2809,-0.45 -0.94098,-1 z m 9.5,-1.54961 c 2.56402,-0.86889 5.90123,-1.27374 7.75702,-0.94104 2.78909,0.50002 3.38868,0.23763 4.1734,-1.82634 0.74572,-1.96141 2.86884,-3.68301 4.54196,-3.68301 0.16985,0 0.49268,1.575 0.71741,3.5 l 0.40861,3.5 -5.5492,0.009 c -3.05206,0.005 -8.0242,0.22424 -11.0492,0.48768 l -5.5,0.47898 4.5,-1.52496 z M 83.611663,112.3575 c 0,-0.76616 0.675,-1.65203 1.5,-1.96862 1.134873,-0.43549 1.5,-2.2728 1.5,-7.54797 0,-3.834797 0.45,-7.250477 1,-7.590396 0.638221,-0.394442 1,2.620619 1,8.333986 0,7.24059 -0.302405,9.06808 -1.581787,9.55902 -2.464312,0.94565 -3.418213,0.7263 -3.418213,-0.78602 z M 57.190269,94.574498 c -1.056767,-0.613359 -4.206767,-1.69951 -7,-2.413669 l -5.078606,-1.298471 5.952239,0.194078 c 5.18303,0.168997 6.09245,-0.08243 7.037209,-1.945594 1.054691,-2.079958 1.147698,-2.043981 3.3326,1.289122 1.236196,1.885837 1.980394,3.861189 1.653773,4.389672 -0.784916,1.270022 -3.509671,1.170619 -5.897215,-0.215138 z m 30.810494,-2.866197 c -2.015531,-0.754715 -3.725238,-3.288316 -2.82589,-4.187664 0.876712,-0.876712 6.436172,0.50277 6.421477,1.593376 -0.03147,2.335966 -1.484892,3.384637 -3.595587,2.594288 z m 76.626207,-5.64877 c -0.008,-1.755041 0.43469,-3.469098 0.98469,-3.809017 1.28168,-0.792122 1.28168,3.516741 0,5.5 -0.73761,1.141375 -0.97304,0.737089 -0.98469,-1.690983 z M 92.281546,83.250514 c 0.757786,-4.943159 1.335112,-5.784761 1.314804,-1.916667 -0.0084,1.604167 -0.445668,3.591667 -0.971658,4.416667 -0.651265,1.021489 -0.760731,0.22397 -0.343146,-2.5 z M 56.566879,82.139202 c -1.557332,-4.086929 -2.404355,-9.03918 -1.383738,-8.090236 0.985362,0.916164 3.44659,10.004083 2.868091,10.590236 -0.210987,0.213779 -0.878945,-0.911221 -1.484353,-2.5 z m 19.07637,-4.162028 c -2.189201,-1.772707 -2.189266,-1.773987 -0.182874,-3.589746 1.957935,-1.771907 2.044646,-1.743817 3.539315,1.146555 2.238151,4.328106 0.517805,5.580365 -3.356441,2.443191 z m 88.983721,-2.47666 c 0.0124,-1.819438 0.20082,-1.962959 0.98469,-0.75 1.25292,1.938759 1.25292,3 0,3 -0.55,0 -0.99311,-1.0125 -0.98469,-2.25 z m -0.34864,-5.416667 c -0.36667,-0.366666 -0.66667,-2.166666 -0.66667,-4 0,-2.877386 0.33759,-3.333333 2.46806,-3.333333 1.63896,0 3.00408,-0.92382 4.06366,-2.75 0.87757,-1.5125 1.257,-1.85 0.84317,-0.75 -0.41382,1.1 -0.69271,3.559309 -0.61975,5.465131 0.073,1.905821 -0.34719,4.043321 -0.93368,4.75 -1.13785,1.37102 -4.05244,1.72056 -5.15479,0.618202 z m 51.60858,-8.195981 c 1.60098,-3.737531 1.53734,-3.715636 3.78555,-1.302471 2.12238,2.278112 2.00554,2.425914 -2.73804,3.463558 -2.00805,0.439258 -2.08945,0.271335 -1.04751,-2.161087 z m -58.17386,0.145829 -2.23457,-1.80944 2.536,-2.382442 2.53599,-2.382442 1.07169,2.818762 c 0.82798,2.177738 0.75943,3.131026 -0.30143,4.191881 -1.16416,1.164161 -1.71317,1.097763 -3.60768,-0.436319 z m 67.8903,0.690523 c -1.06682,-0.674466 -0.23371,-0.94744 2.92498,-0.958391 4.75019,-0.01647 5.05434,0.352009 1.07502,1.302402 -1.37957,0.329487 -3.17957,0.174682 -4,-0.344011 z M 148.1388,43.500514 c -1.51575,-2.149977 -1.47382,-2.264066 0.94329,-2.566422 1.39127,-0.174033 2.5612,-0.849033 2.59986,-1.5 0.0386,-0.650968 0.41898,-0.290764 0.84517,0.800454 1.00419,2.571101 0.21651,5.515968 -1.47539,5.515968 -0.72966,0 -2.04048,-1.0125 -2.91293,-2.25 z m 36.55315,-7.75 c 1.45781,-3.061032 1.91971,-3.628339 1.91971,-2.357796 0,0.536545 -0.69982,1.849045 -1.55517,2.916666 -1.46637,1.830306 -1.48719,1.798398 -0.36454,-0.55887 z m -41.08029,-5 c 0,-0.55 0.45,-1 1,-1 0.55,0 1,0.45 1,1 0,0.55 -0.45,1 -1,1 -0.55,0 -1,-0.45 -1,-1 z m 43.30987,-4.5 c 0.006,-3.3 0.1923,-4.529441 0.41486,-2.732091 0.22256,1.79735 0.21797,4.49735 -0.0102,6 -0.22818,1.50265 -0.41027,0.03209 -0.40466,-3.267909 z"
       style="fill:#d78e91" />
    <path
       id="path4535"
       d="m 196.61166,287.75051 c 0,-0.55 0.675,-1 1.5,-1 0.825,0 1.5,0.45 1.5,1 0,0.55 -0.675,1 -1.5,1 -0.825,0 -1.5,-0.45 -1.5,-1 z m 23.66667,-2.66667 c -0.97708,-0.97707 -0.81374,-4.33333 0.21089,-4.33333 0.48265,0 1.42139,0.65529 2.08609,1.4562 1.7763,2.14031 -0.35908,4.81503 -2.29698,2.87713 z M 93.626653,282.77852 c -0.925097,-1.72856 -0.784849,-2.02801 0.949826,-2.02801 1.119351,0 2.035184,0.64844 2.035184,1.44098 0,2.39109 -1.827195,2.75043 -2.98501,0.58703 z m 25.985007,-3.55939 c 0,-0.80774 0.675,-1.46862 1.5,-1.46862 0.825,0 1.5,0.40186 1.5,0.89301 0,0.49116 -0.675,1.15203 -1.5,1.46862 -0.91371,0.35062 -1.5,0.002 -1.5,-0.89301 z m 71.50708,-5.45717 c -0.35034,-0.56686 0.0511,-0.7345 0.94098,-0.39301 1.73242,0.66479 2.04939,1.38156 0.61096,1.38156 -0.51754,0 -1.21592,-0.44485 -1.55194,-0.98855 z m 3.15684,-5.26145 c 1.1069,-1.2375 3.02834,-3.94769 4.26987,-6.02265 1.96899,-3.29076 2.16759,-4.56808 1.55483,-10 -1.08196,-9.59116 -6.00764,-21.43918 -11.00765,-26.47735 -4.02449,-4.0552 -4.49168,-4.25 -10.19284,-4.25 -8.97897,0 -24.83632,6.0376 -32.62946,12.4235 -2.35297,1.92808 -5.99139,6.43514 -8.08537,10.01568 -4.25379,7.27365 -7.33743,10.70082 -5.66112,6.2918 0.53674,-1.41173 0.96917,-3.39123 0.96095,-4.39888 -0.008,-1.00766 0.97517,-4.70156 2.18531,-8.20868 2.00813,-5.81976 2.0875,-6.84659 0.909,-11.75916 -1.59501,-6.64874 -6.42438,-12.54864 -12.99863,-15.88007 -4.17186,-2.11404 -6.30384,-2.45694 -16.13786,-2.59561 -10.959359,-0.15452 -11.216168,-0.20801 -7.830947,-1.63091 2.504577,-1.05275 6.079907,-1.35878 12.571187,-1.07602 17.20545,0.74947 26.03152,7.99987 27.18174,22.3291 l 0.5312,6.6177 3.60794,-3.4582 c 1.98436,-1.90201 5.48787,-4.39845 7.78558,-5.54764 7.07612,-3.5391 21.40855,-7.2934 28.49063,-7.46296 5.85279,-0.14013 6.99564,0.14608 9.34516,2.34035 3.91793,3.65904 7.47424,10.19265 10.55153,19.38513 2.14407,6.40477 3.16104,8.18221 4.82579,8.43442 2.6668,0.40402 2.72573,1.85001 0.10924,2.68045 -1.15004,0.36501 -2,1.51303 -2,2.70137 0,5.12782 -4.21635,14.76552 -7.45182,17.03332 -2.24627,1.57445 -2.79558,0.65214 -0.88426,-1.48469 z m -75.66392,-1.19098 c 0,-0.79254 0.47155,-1.73242 1.04789,-2.08862 1.69664,-1.04858 3.97235,0.31328 3.32826,1.99175 -0.74668,1.94583 -4.37615,2.02617 -4.37615,0.0969 z m -0.5,-9.55902 c -0.33992,-0.55 -0.14148,-1 0.44098,-1 0.58246,0 1.05902,0.45 1.05902,1 0,0.55 -0.19844,1 -0.44098,1 -0.24254,0 -0.7191,-0.45 -1.05902,-1 z m 399.11905,-3.52381 c -2.02394,-2.02394 -2.18874,-5.63203 -0.22278,-4.87762 1.22272,0.4692 2.92042,5.39975 2.13447,6.19905 -0.16095,0.16369 -1.02122,-0.43095 -1.91169,-1.32143 z m 20.96377,-3.72619 c -0.19492,-0.6875 -0.88022,-3.18371 -1.52288,-5.54713 -0.96489,-3.54847 -2.07369,-4.88141 -6.3642,-7.65069 -6.28256,-4.05503 -11.20029,-9.0634 -12.63441,-12.86728 -1.37657,-3.65124 -1.31606,-5.76295 0.0913,-3.1849 0.60047,1.1 1.78109,3.10243 2.62359,4.44985 l 1.53182,2.44985 0.81377,-2.19985 c 0.44754,-1.20992 1.65324,-2.19985 2.6793,-2.19985 2.92841,0 3.40276,1.21393 0.95182,2.43586 -3.98789,1.98818 -3.1967,4.10579 3.44256,9.2141 8.78562,6.75973 9.80451,7.93922 9.80451,11.35004 0,2 0.5,3 1.5,3 0.825,0 1.5,0.45 1.5,1 0,1.4545 -3.99806,1.22822 -4.41718,-0.25 z m -32.97035,-17.37394 c -2.1815,-6.40234 -2.01651,-14.54682 0.45329,-22.37606 2.92894,-9.28472 3.59818,-21.20432 1.58026,-28.14571 -4.24767,-14.61147 -23.78454,-29.08491 -48.14602,-35.66786 -9.03629,-2.44179 -10.24422,-2.35892 -11.33767,0.77775 -1.75689,5.03982 -3.90847,5.53318 -24.13636,5.53456 l -18.47402,0.001 -2.02598,-3.21148 c -2.92225,-4.63197 -5.52597,-4.35934 -5.52597,0.57885 0,4.59734 -1.79827,5.99464 -17.5,13.59793 -17.72106,8.58112 -20.98538,9.26982 -24.40536,5.149 -2.44494,-2.94598 -4.18521,-0.77754 -3.50305,4.36489 0.60133,4.53306 0.47653,4.86384 -2.73073,7.23709 -1.84847,1.36781 -7.41086,4.38543 -12.36086,6.70583 -4.95,2.3204 -9.68977,4.58002 -10.53282,5.02137 -0.84306,0.44136 -3.07354,1.14087 -4.95664,1.55446 -3.12028,0.68533 -3.69724,0.42631 -6.50807,-2.9217 -3.76967,-4.49011 -6.50247,-4.10827 -6.50247,0.90856 0,1.79882 -0.5625,3.68181 -1.25,4.18444 -3.34721,2.44714 -22.53497,7.36723 -31.40346,8.05241 l -7.15345,0.55268 -1.58545,-3.06593 c -1.53219,-2.96291 -1.7629,-3.04761 -6.86657,-2.52086 -2.90462,0.29978 -13.02811,-0.21077 -22.49666,-1.13455 -23.11074,-2.25476 -28.27222,-1.42416 -34.8737,5.61195 -2.70452,2.88259 -4.64578,7.27997 -6.7699,15.33532 -0.29006,1.1 -0.37211,-1.0202 -0.18233,-4.71156 0.44384,-8.63329 4.44144,-16.24124 10.06832,-19.16133 5.30498,-2.75304 16.27593,-3.17147 32.10609,-1.22454 7.20108,0.88565 14.62608,1.31775 16.5,0.96021 5.10226,-0.97349 8.84552,-5.04093 8.87933,-9.64832 0.0257,-3.50014 0.34819,-3.91899 4.27778,-5.55573 7.4582,-3.10648 17.88218,-5.73567 26.4286,-6.66597 l 6.17861,-0.67256 3.15337,4.3399 c 1.73436,2.38694 3.53273,5.01115 3.9964,5.83157 1.50756,2.66753 1.95381,0.51917 1.04807,-5.04572 -1.06524,-6.54494 -0.0116,-8.68349 6.22025,-12.62454 6.36547,-4.0256 20.19943,-9.31522 24.83736,-9.49696 3.62352,-0.14198 4.48355,0.28984 7.3302,3.68053 3.9382,4.69084 4.90243,3.6692 4.00698,-4.24555 -0.55063,-4.86694 -0.36366,-6.02629 1.1989,-7.43413 4.60334,-4.14753 25.03788,-12.67031 34.3652,-14.33294 3.28602,-0.58574 3.73672,-0.32904 6.94867,3.95774 3.23857,4.32231 5.38026,5.34979 5.66239,2.71657 0.0688,-0.64167 0.18125,-2.98712 0.25,-5.21212 0.088,-2.84927 0.85078,-4.77124 2.57955,-6.5 2.30926,-2.30927 3.1072,-2.45455 13.48144,-2.45455 10.73091,0 23.37452,1.3874 27.70397,3.04 1.31786,0.50304 2.81997,2.66912 3.91008,5.63842 0.97357,2.65187 2.30216,5.40958 2.95242,6.12824 0.65026,0.71867 7.21573,3.077 14.58992,5.24074 25.02754,7.34359 35.82412,14.91126 43.53646,30.51611 3.46869,7.01842 3.83904,8.52095 3.78553,15.358 -0.0553,7.06455 -1.07242,11.61691 -4.82126,21.57849 -1.77207,4.70881 -2.02365,14.40932 -0.51464,19.84377 1.54792,5.57457 0.43083,5.59918 -1.466,0.0323 z m 42.61926,3.78832 c -1.68754,-1.07112 -3.44662,-7.16438 -2.0683,-7.16438 0.56309,0 1.25916,0.9 1.54682,2 0.33846,1.29427 1.36402,2 2.90638,2 2.62131,0 3.02595,0.95742 1.18337,2.8 -1.40255,1.40255 -1.85917,1.44918 -3.56827,0.36438 z m -15.73173,-11.16438 c -0.79713,-1.28978 4.50421,-1.28978 6.5,0 1.11809,0.72257 0.56026,0.97327 -2.19098,0.98469 -2.03004,0.008 -3.9691,-0.43469 -4.30902,-0.98469 z m -494.3455,-1.43765 c 0.190026,-0.9174 0.795503,-1.64422 1.345503,-1.61517 1.484289,0.0784 1.211605,2.31562 -0.345503,2.83465 -0.841121,0.28038 -1.215987,-0.17677 -1,-1.21948 z m 15.939445,-1.94916 c -0.817955,-0.98557 -0.860382,-1.6395 -0.135437,-2.08754 0.580591,-0.35883 1.333035,0.0705 1.672096,0.9541 0.844178,2.19989 -0.08363,2.88424 -1.536659,1.13344 z m 26.489007,-7.47898 c -0.430771,-0.697 -0.513159,-1.53733 -0.183085,-1.86741 0.894961,-0.89496 1.870768,0.4213 1.387387,1.87145 -0.338725,1.01617 -0.574267,1.01538 -1.204302,-0.004 z m 470.885668,-1.63421 c -0.25774,-0.825 -0.6795,-2.175 -0.93724,-3 -0.25773,-0.825 -0.0327,-1.5 0.5,-1.5 0.53274,0 0.96862,0.81 0.96862,1.8 0,0.99 0.54,2.34 1.2,3 0.93333,0.93333 0.92636,1.2 -0.0314,1.2 -0.67727,0 -1.44227,-0.675 -1.7,-1.5 z m -481.468617,-2.5 c 0,-0.55 0.476558,-1 1.059017,-1 0.582459,0 0.780902,0.45 0.440983,1 -0.339919,0.55 -0.816476,1 -1.059017,1 -0.242541,0 -0.440983,-0.45 -0.440983,-1 z m 2.57866,-2.87273 c -0.296655,-0.47999 2.714287,-1.18064 6.690983,-1.55698 5.616689,-0.53154 9.238973,-1.66174 16.230357,-5.06407 12.665217,-6.16348 15.642477,-11.09286 17.495997,-28.96764 1.1816,-11.39501 -0.16527,-24.10637 -3.23046,-30.48811 -1.17542,-2.44724 -4.62099,-6.81726 -7.65683,-9.71116 -3.035841,-2.8939 -5.298044,-5.48331 -5.027122,-5.75423 0.270923,-0.27092 3.285077,1.27307 6.698122,3.43109 8.78282,5.55325 15.77222,7.39091 24.94818,6.55941 14.44724,-1.30918 22.48597,-8.8698 30.91864,-29.07975 4.91844,-11.787658 11.37182,-21.436417 16.55344,-24.749852 3.40161,-2.175186 16.90286,-6.745974 19.92635,-6.745974 3.74042,0 0.96901,1.627193 -7.62632,4.477674 -16.39309,5.436463 -20.09985,9.52142 -21.16419,23.323532 -1.12043,14.52945 3.29853,24.87164 12.57585,29.43267 13.43499,6.60507 44.13724,0.24312 52.78196,-10.93719 4.68757,-6.06249 6.44115,-14.41177 4.38906,-20.89747 -2.13897,-6.760243 -2.20776,-8.399969 -0.35173,-8.383903 0.97298,0.0084 2.41511,0.424125 3.20475,0.923784 1.1867,0.750917 1.20991,1.180522 0.13383,2.477125 -0.91591,1.103603 -1.10495,3.144704 -0.63766,6.884814 0.36532,2.92389 0.2149,7.31479 -0.33426,9.75756 -0.77467,3.44582 -0.68502,4.92007 0.3999,6.57678 1.67827,2.56277 1.07164,3.36462 -2.54549,3.36462 -1.94891,0 -3.50052,1.03034 -5.50073,3.65274 -1.53234,2.00901 -5.68874,6.84651 -9.23644,10.75 -7.67722,8.44716 -9.21485,11.6592 -9.21485,19.24942 0,12.53519 10.38043,24.07216 28.12393,31.25739 8.88693,3.59875 5.78795,4.23249 -4.76859,0.97517 -16.43652,-5.07163 -28.38521,-18.12399 -28.33338,-30.95044 0.0267,-6.60139 2.30136,-11.85053 7.83324,-18.07628 l 4.12465,-4.64201 -6.23993,1.95724 c -26.49853,8.31161 -50.73992,-3.17332 -50.73992,-24.03925 0,-2.27369 -0.3375,-4.12507 -0.75,-4.11418 -0.4125,0.0109 -2.2193,3.14774 -4.01511,6.97076 -5.93642,12.63779 -17.17511,21.5393 -28.66788,22.70618 -4.70715,0.47792 -13.75837,-0.65442 -17.80932,-2.22801 -1.49638,-0.58127 -1.38565,0.10223 0.78449,4.84244 5.30965,11.5978 7.18293,32.51676 3.90138,43.56692 -2.67828,9.01876 -11.68562,16.55416 -25.997495,21.74909 -6.524768,2.36837 -16.797735,3.23085 -17.867402,1.50009 z m 438.421337,-0.12727 c 0,-0.55 0.42344,-1 0.94098,-1 0.51754,0 1.2191,0.45 1.55902,1 0.33992,0.55 -0.0835,1 -0.94098,1 -0.85746,0 -1.55902,-0.45 -1.55902,-1 z m -355.5,-5.02459 c -11.16025,-1.73209 -20.00775,-8.37109 -23.46306,-17.60624 -3.92335,-10.48608 -1.79114,-18.58387 7.07758,-26.87952 9.41747,-8.80894 20.36091,-11.36249 32.67088,-7.62345 7.19389,2.18507 15.30376,7.43484 19.26512,12.47089 7.2824,9.25808 5.15701,22.50692 -5.19148,32.36169 -6.54863,6.23618 -18.54157,9.11072 -30.35904,7.27663 z m 387.30259,-1.72541 c -1.93587,-2.24745 -4.05799,-6.35718 -6.84182,-13.25 -4.29436,-10.63289 -9.86429,-16.89046 -19.28249,-21.66303 -3.75987,-1.90527 -6.01048,-2.42162 -8.87837,-2.03696 -4.5477,0.60998 -7.68143,-1.53292 -5.71198,-3.90596 1.6308,-1.96499 3.63599,-1.7358 9.76137,1.11572 6.39261,2.97592 5.93648,2.93186 6.33115,0.61157 0.30632,-1.80087 0.62482,-1.77912 7.69128,0.52527 4.05446,1.32216 13.13224,3.07528 20.17287,3.89581 7.04062,0.82052 14.72912,2.1721 17.08557,3.00351 5.46399,1.9278 13.50867,7.07052 14.3045,9.14442 1.13385,2.95476 -0.43556,2.68842 -3.6735,-0.62343 -4.74894,-4.85733 -9.86063,-6.58379 -23.76117,-8.02527 -4.675,-0.48479 -11.38284,-1.38865 -14.9063,-2.00856 -6.35944,-1.11886 -9.0937,-0.88859 -9.0937,0.76584 0,0.47393 1.75503,2.82024 3.90006,5.21401 2.54399,2.83899 5.19599,7.67897 7.62712,13.91969 2.04988,5.26205 4.6005,10.80487 5.66803,12.31737 2.16978,3.07417 1.92688,3.69282 -0.39262,1 z m -28.28493,-43.61343 c -3.38516,-2.47529 -1.20468,-4.6344 4.70096,-4.65489 8.0498,-0.0279 25.53955,-2.74792 32.47373,-5.0503 3.40579,-1.13084 8.13079,-3.36126 10.5,-4.9565 l 4.30765,-2.90042 0.54206,2.21277 c 0.51011,2.0823 1.24716,2.25111 12.5,2.86299 12.34197,0.67109 19.49798,2.17674 27.70794,5.82982 3.85804,1.71666 4.75,2.58862 4.75,4.64348 v 2.52993 l -2.43661,-2.89574 c -2.35205,-2.79526 -4.9657,-3.88742 -14.56339,-6.08561 -4.77167,-1.09286 -28.27616,-0.0448 -39.5,1.76128 -3.3,0.53102 -8.025,1.25015 -10.5,1.59807 -2.475,0.34792 -6.975,1.04601 -10,1.55132 -3.025,0.50531 -7.75,1.19862 -10.5,1.54069 -2.75,0.34208 -5.70644,1.23812 -6.56986,1.99121 -1.3182,1.14976 -1.86524,1.15327 -3.41248,0.0219 z m -24.26766,-11.29885 c -1.8429,-0.74363 -1.51921,-3.31305 0.5,-3.96893 10.74771,-3.49112 29.13142,-11.83327 34.3759,-15.59907 6.33419,-4.54828 7.0949,-7.08393 6.94999,-23.16631 -0.15665,-17.386458 0.097,-20.603406 1.62442,-20.603406 2.51628,0 3.17522,3.319617 1.38265,6.96553 -1.26447,2.571805 -1.69629,5.713387 -1.58547,11.534466 0.1868,9.81103 1.4168,12.5 5.71781,12.5 4.91745,0 10.94693,-7.10927 13.78729,-16.256377 5.69012,-18.324567 6.47943,-20.133153 10.14503,-23.24598 2.35191,-1.997237 2.35205,-1.997237 0.72297,0.0024 -5.99239,7.355278 -9.34074,24.5 -4.78483,24.5 0.63262,0 2.76408,-1.416999 4.73659,-3.148887 6.23498,-5.474385 13.27411,-8.043886 23.02211,-8.403795 8.39195,-0.309842 8.45759,-0.295285 2.15554,0.477993 -10.87849,1.334818 -21.52219,6.317642 -29.82246,13.961306 -3.38455,3.11681 -9.14721,7.9543 -22.33965,18.75312 -2.78154,2.27686 -6.24546,4.73732 -7.69762,5.46768 -1.45215,0.73036 -4.44027,2.55421 -6.64027,4.05301 -4.49363,3.06137 -20.52117,10.36173 -24.78537,11.28945 -1.71367,0.37282 -3.147,1.55713 -3.72525,3.07805 -0.94664,2.48985 -1.45012,2.73353 -3.73938,1.80979 z m 83.77413,-13.5451 c 2.22436,-1.8865 6.78723,-14.41709 7.57138,-20.79262 0.37206,-3.025 1.21081,-6.625 1.8639,-8 0.65308,-1.375 1.02389,-3.4 0.82403,-4.499996 -0.35339,-1.944908 -0.32214,-1.948122 1.1343,-0.116691 1.31896,1.658547 1.32373,2.299667 0.04,5.372117 -0.80175,1.91885 -1.45772,4.72729 -1.45772,6.24097 0,1.51368 -0.68151,4.68375 -1.51447,7.04461 -1.53076,4.33864 -1.21815,7.95899 0.68724,7.95899 0.5709,0 4.70308,-1.1017 9.18262,-2.44821 13.167,-3.95791 24.34199,-5.75773 26.68075,-4.29714 1.88863,1.17946 2.64716,2.74535 1.32988,2.74535 -0.34869,0 -2.32916,-0.50789 -4.40105,-1.12864 -5.74701,-1.72185 -22.30833,2.91984 -38.46317,10.78018 -2.75099,1.33853 -4.31594,1.85202 -3.47767,1.14108 z M 70.218652,130.16872 c -0.857676,-2.23506 -0.790042,-2.41821 0.893011,-2.41821 0.833333,0 1.5,0.88889 1.5,2 0,2.38425 -1.535591,2.65261 -2.393011,0.41821 z m 9.543328,-5.10393 c 0.543334,-0.65215 2.304104,-1.47481 3.912824,-1.82815 1.60872,-0.35333 3.31561,-1.3405 3.79309,-2.19371 0.708188,-1.26546 1.148421,-0.98946 2.389321,1.49798 l 1.521177,3.04927 -6.302146,0.33017 c -4.775581,0.25018 -6.062852,0.0429 -5.314266,-0.85556 z m 191.07885,-9.50178 c 0.61807,-1.85422 2.77083,-2.16176 2.77083,-0.39583 0,0.87083 -0.7125,1.58333 -1.58333,1.58333 -0.87084,0 -1.40521,-0.53437 -1.1875,-1.1875 z m -30.05629,-9.47169 c 0.19498,-1.01244 1.02335,-1.84081 1.84082,-1.84081 2.1435,0 1.8339,2.90567 -0.35451,3.32712 -1.3364,0.25736 -1.74367,-0.14991 -1.48631,-1.48631 z M 58.168685,93.415868 c -1.618618,-1.183563 -1.623488,-1.365303 -0.07111,-2.653665 1.422018,-1.180171 1.799798,-1.172452 2.574987,0.05261 1.859171,2.93813 0.247181,4.612678 -2.503881,2.601052 z M 598.5676,90.124049 c -2.15428,-2.362913 -2.21028,-2.596914 -0.45594,-1.905068 1.1,0.433799 3.03131,1.011913 4.29181,1.284699 1.2605,0.272785 2.12321,1.002417 1.91713,1.621404 -0.71104,2.135791 -3.30458,1.68451 -5.753,-1.001035 z M 88.111663,89.750514 c -0.339919,-0.55 0.110081,-1 1,-1 0.889919,0 1.339919,0.45 1,1 -0.339919,0.55 -0.789919,1 -1,1 -0.210081,0 -0.660081,-0.45 -1,-1 z M 75.947496,77.183297 c -0.965848,-2.516959 1.288702,-4.002862 2.536343,-1.671625 1.043242,1.949316 0.617137,3.238842 -1.070227,3.238842 -0.475595,0 -1.135348,-0.705248 -1.466116,-1.567217 z M 577.61166,70.357503 c 0,-0.216156 0.675,-0.652033 1.5,-0.968615 0.825,-0.316583 1.5,-0.139728 1.5,0.393011 0,0.532738 -0.675,0.968615 -1.5,0.968615 -0.825,0 -1.5,-0.176855 -1.5,-0.393011 z M 165.33421,69.139732 c -0.3974,-0.397403 -0.72255,-1.772551 -0.72255,-3.055885 0,-1.666666 0.57143,-2.333333 2,-2.333333 1.1,0 2,0.588992 2,1.30887 0,1.902539 -2.42998,4.927813 -3.27745,4.080348 z m 31.46561,-4.127734 c 0.50201,-2.606737 3.81184,-2.897451 3.81184,-0.334808 0,1.431099 -0.64223,2.073324 -2.07332,2.073324 -1.4311,0 -1.96962,-0.538516 -1.73852,-1.738516 z m 20.81184,-3.320501 c 0,-0.582459 0.45,-0.780902 1,-0.440983 0.55,0.339919 1,0.816476 1,1.059017 0,0.242541 -0.45,0.440983 -1,0.440983 -0.55,0 -1,-0.476558 -1,-1.059017 z m -60.46899,-0.89081 c -0.32287,-0.522404 0.32558,-1.438237 1.44098,-2.035183 1.72856,-0.925097 2.02801,-0.784849 2.02801,0.949826 0,2.068113 -2.39793,2.818364 -3.46899,1.085357 z m -7.86434,-16.71684 c -1.26779,-1.267791 -0.65891,-2.333333 1.33333,-2.333333 1.11111,0 2,0.666667 2,1.5 0,1.522411 -2.1154,2.051262 -3.33333,0.833333 z"
       style="fill:#d27c82" />
    <path
       id="path4533"
       d="m 119.61166,266.75051 c 0,-0.55 0.45,-1 1,-1 0.55,0 1,0.45 1,1 0,0.55 -0.45,1 -1,1 -0.55,0 -1,-0.45 -1,-1 z m 418.38953,-17.42727 c -0.30123,-0.785 -0.38004,-2.4725 -0.17514,-3.75 0.27408,-1.70876 0.50623,-1.33149 0.87828,1.42727 0.52359,3.88245 0.24656,4.79759 -0.70314,2.32273 z m -401.99995,-7.77922 c 0.61073,-3.41357 1.38805,-6.00107 1.72737,-5.75 0.33932,0.25107 2.65709,-1.42404 5.15059,-3.72247 2.4935,-2.29843 6.34581,-5.10346 8.56069,-6.23341 6.7523,-3.44477 21.24392,-7.23922 28.33374,-7.41884 5.8486,-0.14818 6.98661,0.13534 9.32098,2.32221 3.34793,3.13639 10.84502,18.11522 10.32454,20.62798 -0.25201,1.21667 -1.25807,-0.35771 -2.84855,-4.45769 -7.02644,-18.11291 -16.42978,-20.15778 -40.95894,-8.90702 -7.78525,3.57086 -15.0883,10.14823 -18.41871,16.58853 -0.89796,1.73646 -1.78328,3.1572 -1.96739,3.1572 -0.18411,0 0.16495,-2.79292 0.77568,-6.20649 z m 411.27709,-5.46018 c -1.36711,-1.3671 -0.58992,-2.04131 1.82168,-1.58031 1.36859,0.26162 2.24203,0.87422 1.94098,1.36133 -0.64473,1.04319 -2.81231,1.16934 -3.76266,0.21898 z M 136.77206,224.25051 c -2.72834,-9.82259 -12.56414,-16.57242 -25.6604,-17.60949 l -8,-0.6335 9.056,0.15923 c 7.60951,0.13379 9.92555,0.58815 14.5,2.84457 3.20471,1.58077 6.38924,4.08751 7.74201,6.09421 2.50871,3.72142 4.57946,10.06694 3.90118,11.95459 -0.23525,0.65471 -0.92771,-0.60961 -1.53879,-2.80961 z m 367.91855,-7.08333 c 0.048,-1.16495 0.28494,-1.4019 0.60416,-0.60417 0.28887,0.72187 0.25335,1.58437 -0.0789,1.91667 -0.33229,0.33229 -0.56864,-0.25834 -0.52522,-1.3125 z m -306.60549,-9.73649 c 0.95167,-4.47484 4.72533,-9.51025 8.52654,-11.37744 4.59261,-2.25594 15.85833,-2.81926 27.37966,-1.36906 17.54396,2.20827 27.62034,1.30758 27.62034,-2.46886 0,-0.80565 0.45,-1.46482 1,-1.46482 0.55,0 1,-2.04099 1,-4.53554 0,-4.39158 0.13489,-4.59172 4.25,-6.30573 7.44423,-3.10066 17.88246,-5.73582 26.38445,-6.66085 6.08631,-0.66219 6.15443,-0.64123 8.68138,2.67178 1.40082,1.83656 3.03059,4.61129 3.62171,6.16606 1.05207,2.76715 3.94619,3.25946 3.17022,0.53928 -1.62705,-5.70365 -1.81575,-10.54891 -0.49182,-12.62842 3.8696,-6.07803 24.54939,-14.91897 33.57192,-14.35254 0.92833,0.0583 3.14785,2.13894 4.93226,4.6237 1.78442,2.48476 3.55816,4.17226 3.94164,3.75 0.38348,-0.42226 0.22774,-3.80084 -0.3461,-7.50796 -0.90407,-5.84049 -0.82112,-6.98577 0.62144,-8.57978 3.53247,-3.90333 24.8889,-12.94212 34.72429,-14.69654 3.29654,-0.58803 3.76135,-0.34675 6.25,3.24438 1.47874,2.13381 2.68861,4.41797 2.68861,5.07591 0,0.65794 0.9,1.19625 2,1.19625 1.77945,0 2,-0.66667 2,-6.04545 0,-5.0853 0.38984,-6.4353 2.45455,-8.5 2.31333,-2.31334 3.09774,-2.45455 13.6347,-2.45455 9.60869,0 16.56896,0.68001 26.64256,2.60295 2.49402,0.47608 4.89644,4.45739 6.05526,10.03483 0.62905,3.02763 1.40235,3.93135 4.24113,4.95642 l 3.4718,1.25364 -3.65217,0.0761 c -3.10724,0.0647 -3.80419,0.51215 -4.67098,2.9986 -1.77294,5.08587 -3.89173,5.57484 -24.16242,5.57622 l -18.48557,0.001 -2.43197,-3.75 c -3.31317,-5.10852 -5.09689,-4.89255 -5.09689,0.61735 0,3.94525 -0.36226,4.60323 -3.75,6.81136 -4.89055,3.18765 -22.37574,11.64248 -28.72522,13.88986 -5.10306,1.80622 -6.97182,1.5078 -9.47947,-1.51373 -0.70961,-0.85503 -1.94248,-1.5546 -2.73971,-1.5546 -1.16947,0 -1.31981,1.03811 -0.77816,5.3733 0.65543,5.24594 0.59196,5.43203 -2.67805,7.85147 -1.84216,1.363 -7.39939,4.37668 -12.34939,6.69708 -4.95,2.3204 -9.68977,4.58002 -10.53282,5.02137 -0.84306,0.44136 -3.07354,1.14087 -4.95664,1.55446 -3.13162,0.68782 -3.69453,0.42955 -6.59593,-3.02635 -3.86362,-4.60201 -6.41461,-4.2541 -6.41461,0.87484 0,1.87492 -0.5625,3.82018 -1.25,4.32281 -3.34721,2.44714 -22.53497,7.36723 -31.40346,8.05241 l -7.15345,0.55268 -1.62223,-3.13703 -1.62222,-3.13704 -8.72432,-0.0296 c -4.79838,-0.0163 -14.9753,-0.66759 -22.61539,-1.44736 -14.42122,-1.47187 -20.8448,-1.01818 -26.35831,1.86168 -2.89821,1.51382 -7.16789,5.75344 -9.17989,9.11528 -1.07625,1.79829 -1.13649,1.7156 -0.59727,-0.81982 z M 80.424163,207.0674 c 0.721875,-0.28887 1.584375,-0.25335 1.916667,0.0789 0.332291,0.33229 -0.258334,0.56864 -1.3125,0.52522 -1.164943,-0.048 -1.4019,-0.28494 -0.604167,-0.60416 z m 13.178846,-4.32112 c 9.589811,-4.63108 12.376621,-6.88378 15.110231,-12.21429 6.14097,-11.97481 6.63461,-39.06331 0.90689,-49.76566 -0.70407,-1.31555 -3.30557,-4.55729 -5.78113,-7.20387 -2.47556,-2.64657 -4.155057,-4.81195 -3.73221,-4.81195 1.7141,0 7.50487,4.25547 7.50487,5.51511 0,0.7436 1.35248,3.52768 3.00551,6.18685 4.33595,6.97508 6.23988,17.26879 5.78892,31.29804 -0.46035,14.3212 -2.33435,19.1633 -9.45529,24.4308 -5.13531,3.7987 -15.177185,9.01523 -19.339137,10.04626 -1.375,0.34063 1.321106,-1.22595 5.991346,-3.48129 z m 414.771531,1.00423 c 1.49399,-7.09376 0.75992,-18.22909 -1.59253,-24.15768 -5.11795,-12.89808 -28.00661,-28.93047 -47.53835,-33.29829 -1.5774,-0.35275 -2.62318,-0.88619 -2.32395,-1.18541 0.90547,-0.90548 18.72035,4.59613 26.19195,8.08861 8.69387,4.06382 14.2944,8.50879 19.62922,15.5791 6.59049,8.73449 8.19782,13.20479 8.26034,22.97367 0.0389,6.07597 -0.43301,9.49813 -1.6547,12 l -1.70911,3.5 z m -353.89225,-1.95744 c -14.64271,-2.66404 -23.87063,-12.79559 -23.87063,-26.20812 0,-12.70892 13.25958,-24.61754 28.5,-25.59628 12.64502,-0.81206 26.55373,5.87827 32.18028,15.47926 3.12826,5.33796 3.56583,13.52912 1.04021,19.47219 -2.33709,5.49942 -9.12838,12.30938 -14.64031,14.68055 -5.56789,2.39524 -16.40792,3.40986 -23.20955,2.1724 z m 79.20847,-14.73253 c -9.3853,-3.18591 -19.08514,-11.53664 -22.94937,-19.75742 -2.7546,-5.86016 -2.84346,-14.25671 -0.20469,-19.34245 2.60959,-5.02952 7.70233,-10.88443 8.65451,-9.94973 0.42606,0.41824 -0.38819,1.99324 -1.80944,3.5 -5.61702,5.95501 -7.08266,14.03118 -4.12277,22.71797 2.05856,6.04155 12.64909,17.00826 19.85266,20.55784 6.18438,3.04736 5.91782,2.88157 5.41667,3.36913 -0.22917,0.22295 -2.40607,-0.26995 -4.83757,-1.09534 z m 340.4209,-9.31003 c -0.33992,-0.55 -0.14148,-1 0.44098,-1 0.58246,0 1.05902,0.45 1.05902,1 0,0.55 -0.19844,1 -0.44098,1 -0.24254,0 -0.7191,-0.45 -1.05902,-1 z m -8.5,-6 c -0.90129,-0.58246 -1.02463,-0.97549 -0.30902,-0.98469 0.65504,-0.008 1.4691,0.43469 1.80902,0.98469 0.7673,1.24153 0.42112,1.24153 -1.5,0 z m -17,-2.48698 c -5.225,-0.6744 -11.92747,-1.7499 -14.89438,-2.39001 -4.61889,-0.99652 -5.75065,-0.93039 -7.87259,0.45996 -2.07768,1.36135 -2.86243,1.41814 -4.85562,0.35142 -2.19751,-1.17607 -3.23265,-4.74582 -1.79348,-6.18499 0.32116,-0.32116 2.96498,0.23527 5.87514,1.23652 7.18484,2.47195 14.17838,3.82432 26.00576,5.02887 5.48065,0.55818 10.40815,1.45819 10.95,2.00004 1.20764,1.20764 -0.73314,1.13504 -13.41483,-0.50181 z m -34,-4.51302 c -0.825,-0.53316 -1.05,-0.96937 -0.5,-0.96937 0.55,0 1.675,0.43621 2.5,0.96937 0.825,0.53316 1.05,0.96937 0.5,0.96937 -0.55,0 -1.675,-0.43621 -2.5,-0.96937 z m -12.32411,-2.40223 c -1.06877,-2.78517 2.14062,-3.44365 7.00901,-1.43806 l 2.8151,1.15972 -3,0.72197 c -4.77831,1.14993 -6.2493,1.0543 -6.82411,-0.44363 z m 12.57411,-5.31159 c -0.6875,-0.24907 -1.25,-1.09035 -1.25,-1.86951 0,-1.11587 1.64557,-1.3784 7.75,-1.23642 5.90919,0.13743 6.5641,0.27156 2.75724,0.5647 -2.74602,0.21146 -5.67102,0.97162 -6.5,1.68927 -0.82898,0.71764 -2.06974,1.10102 -2.75724,0.85196 z m 94.25,-3.28618 c -0.33992,-0.55 -0.14148,-1 0.44098,-1 0.58246,0 1.05902,0.45 1.05902,1 0,0.55 -0.19844,1 -0.44098,1 -0.24254,0 -0.7191,-0.45 -1.05902,-1 z m -73.25,-1.68933 c 0.9625,-0.25152 2.5375,-0.25152 3.5,0 0.9625,0.25153 0.175,0.45733 -1.75,0.45733 -1.925,0 -2.7125,-0.2058 -1.75,-0.45733 z m 9.25,-1.01184 c 0.55,-0.50928 3.53351,-1.69084 6.63002,-2.62568 3.09652,-0.93484 7.33891,-2.85939 9.42755,-4.27678 3.75961,-2.55134 3.81322,-2.55728 5.36998,-0.59434 1.37408,1.7326 3.14933,2.04488 14.07245,2.47541 18.89545,0.74477 19.67486,2.21866 1.18685,2.24438 -13.58514,0.0189 -29.03675,1.39072 -35.68685,3.16835 -1.25839,0.33638 -1.6292,0.19127 -1,-0.39134 z m -54.83333,-5.9655 c -1.15064,-1.15063 -0.72824,-2.33333 0.83333,-2.33333 0.825,0 1.5,0.675 1.5,1.5 0,1.56157 -1.1827,1.98397 -2.33333,0.83333 z m -304.92075,-7.35633 c -10.49888,-2.64966 -18.47955,-9.38231 -20.75496,-17.50929 -1.59579,-5.6996 -0.84073,-18.97761 1.33449,-23.467706 1.25869,-2.598185 1.56542,-2.855847 1.19042,-1 -0.27784,1.375 -0.7869,5.426826 -1.13126,9.004066 -1.76784,18.36479 9.83993,31.99593 27.24653,31.99593 7.74261,0 19.69141,-2.67292 27.2309,-6.09149 7.45145,-3.37865 9.03209,-3.17473 3.47972,0.44892 -9.03442,5.89614 -28.34154,9.2075 -38.59584,6.61957 z m 392.25408,-9.78587 c 0,-0.99488 0.66069,-2.68238 1.4682,-3.75 1.35077,-1.78588 1.47074,-1.79866 1.5,-0.15975 0.0175,0.97977 0.7596,2.06067 1.64914,2.40202 1.35105,0.51845 1.22757,0.83674 -0.75,1.93318 -3.19889,1.77359 -3.86734,1.70005 -3.86734,-0.42545 z M 84.342631,124.09457 c 0.677033,-0.27392 2.027033,-0.29059 3,-0.037 0.972968,0.25354 0.419032,0.47766 -1.230968,0.49804 -1.65,0.0204 -2.446064,-0.18706 -1.769032,-0.46099 z m 446.279989,-2.59406 c 1.08986,-1.7875 1.98325,-4.72287 1.9853,-6.52305 0.004,-3.26188 0.0123,-3.26746 2.50559,-1.63378 1.39302,0.91274 3.60904,1.42762 5,1.16173 1.37398,-0.26266 2.49815,-0.1127 2.49815,0.33325 0,0.82483 -12.25032,9.91185 -13.36229,9.91185 -0.33457,0 0.28339,-1.4625 1.37325,-3.25 z m 81.72001,-2.40594 c 0.67703,-0.27392 2.02703,-0.29059 3,-0.037 0.97297,0.25354 0.41903,0.47766 -1.23097,0.49804 -1.65,0.0204 -2.44606,-0.18706 -1.76903,-0.46099 z m -30.65202,-4.92739 c 0.048,-1.16495 0.28494,-1.4019 0.60416,-0.60417 0.28887,0.72187 0.25335,1.58437 -0.0789,1.91667 -0.33229,0.33229 -0.56864,-0.25834 -0.52522,-1.3125 z m -31.57556,-8.66667 c 1.29944,-2.3375 2.93072,-6.499996 3.62508,-9.249996 1.23124,-4.876275 1.28051,-4.925765 1.99112,-2 0.40075,1.65 1.04111,4.015737 1.42303,5.257192 0.5622,1.827444 -0.13724,3.017384 -3.67366,6.249994 -2.40244,2.19605 -4.67409,3.99281 -5.04812,3.99281 -0.37403,0 0.38312,-1.9125 1.68255,-4.25 z m -308.50339,0.25 c 0,-0.55 0.45,-1 1,-1 0.55,0 1,0.45 1,1 0,0.55 -0.45,1 -1,1 -0.55,0 -1,-0.45 -1,-1 z m -5.39522,-9.587527 c -0.85526,-2.228786 -0.7871,-2.412469 0.89522,-2.412469 0.825,0 1.5,0.648442 1.5,1.440983 0,2.115609 -1.69272,2.802165 -2.39522,0.971486 z m 295.04048,-1.137741 c -0.57561,-2.340203 -0.36137,-3.841951 0.78072,-5.472506 0.86571,-1.235979 1.57402,-3.137107 1.57402,-4.224728 0,-1.554119 0.26073,-1.716765 1.21781,-0.759682 0.95708,0.957082 0.85877,1.909812 -0.45922,4.45 -0.92237,1.777703 -1.82171,4.582188 -1.99853,6.232188 l -0.32148,3 z m 38.3084,-2.800324 c 5.4837,-3.493537 7.69209,-4.328273 6.54634,-2.474404 -0.33992,0.55 -1.05042,1 -1.57889,1 -0.52847,0 -2.74297,1.125 -4.92111,2.5 -2.17814,1.375 -4.3067,2.488482 -4.73013,2.474404 -0.42343,-0.01408 1.68428,-1.589078 4.68379,-3.5 z M 58.611663,91.691497 c 0,-0.582459 0.45,-0.780902 1,-0.440983 0.55,0.339919 1,0.816476 1,1.059017 0,0.242541 -0.45,0.440983 -1,0.440983 -0.55,0 -1,-0.476558 -1,-1.059017 z M 600.1693,90.843773 c -0.30822,-0.498708 0.34022,-0.671224 1.44098,-0.383369 2.33499,0.610613 2.63015,1.29011 0.5604,1.29011 -0.79254,0 -1.69316,-0.408034 -2.00138,-0.906741 z M 183.11166,80.214399 c 1.65,-0.755522 3.675,-1.359739 4.5,-1.342703 0.825,0.01704 -0.075,0.637504 -2,1.378818 -4.5657,1.758243 -6.36206,1.732293 -2.5,-0.03611 z m -17.5,-13.904868 c 0,-0.857459 0.45,-1.559017 1,-1.559017 0.55,0 1,0.423442 1,0.940983 0,0.517541 -0.45,1.219098 -1,1.559017 -0.55,0.339919 -1,-0.08352 -1,-0.940983 z m 32,-1.559017 c 0,-0.55 0.45,-1 1,-1 0.55,0 1,0.45 1,1 0,0.55 -0.45,1 -1,1 -0.55,0 -1,-0.45 -1,-1 z"
       style="fill:#cd6d72" />
    <path
       id="path4531"
       d="m 267.2311,201.98149 c -0.86755,-1.67766 -2.14933,-3.24105 -2.8484,-3.4742 -1.42117,-0.47399 -1.42043,-15.50739 8.3e-4,-16.92865 2.26236,-2.26236 20.29877,-7.24726 30.35143,-8.38851 5.50628,-0.62512 5.67591,-0.56871 8.15167,2.71099 3.8182,5.05804 6.00887,10.89237 5.76338,15.34939 -0.25249,4.58429 -1.18783,6.0595 -4.31889,6.81176 -1.2207,0.29328 -6.26946,1.6912 -11.21946,3.10648 -4.95,1.41529 -12.44322,2.86345 -16.6516,3.21813 l -7.6516,0.64489 z m -115.88497,-2.31903 c -16.5251,-3.89327 -25.11698,-19.32998 -18.27445,-32.83305 6.04142,-11.92217 21.2068,-18.96286 34.76439,-16.13973 11.15099,2.32199 20.42668,8.9619 23.4017,16.75187 4.76025,12.46454 -4.95497,28.09327 -19.86822,31.96172 -5.7787,1.49897 -14.2933,1.60919 -20.02342,0.25919 z m 163.14981,-9.08508 c -3.34416,-4.15483 -5.19595,-8.71647 -6.29007,-15.49469 -0.92005,-5.69985 4.62125,-10.26051 19.78627,-16.2847 10.50151,-4.17165 15.19558,-4.2914 18.33064,-0.46762 3.84682,4.69188 5.01141,7.53503 5.75694,14.05459 0.69852,6.10846 0.68737,6.14489 -2.63328,8.60147 -1.83413,1.35686 -7.38478,4.36553 -12.33478,6.68593 -4.95,2.3204 -9.7321,4.60645 -10.62689,5.08012 -0.89479,0.47367 -3.17474,1.15159 -5.06655,1.5065 -3.16674,0.59408 -3.71597,0.30197 -6.92228,-3.6816 z m 42.2871,-20.33611 c -4.65318,-3.9154 -7.88278,-18.9422 -4.80261,-22.34575 3.50374,-3.87159 24.90342,-12.91537 34.69262,-14.66155 3.30792,-0.59006 3.73692,-0.36297 6.02739,3.19063 4.38181,6.79823 4.91122,8.21893 4.91122,13.17945 0,4.53871 -0.26276,5.05195 -3.75,7.32493 -3.67063,2.39251 -20.6228,10.83629 -26.0231,12.96196 -7.0638,2.78046 -8.12741,2.81416 -11.05552,0.35033 z m 47.75377,-18.1494 c -4.05691,-4.81895 -4.92515,-7.34896 -4.92515,-14.35163 0,-6.18438 0.31069,-7.39133 2.45455,-9.53518 2.31333,-2.31334 3.09774,-2.45455 13.6347,-2.45455 9.60869,0 16.56896,0.68001 26.64256,2.60295 4.51495,0.86185 8.1491,13.04449 5.66486,18.99011 -2.24249,5.36704 -4.06166,5.84134 -23.90901,6.23363 -16.52076,0.32654 -18.1407,0.20354 -19.56251,-1.48533 z"
       style="fill:#79a384" />
    <path
       id="path4529"
       d="m 270.03872,202.9852 c -0.59012,-0.40408 -1.3635,-1.52219 -1.71862,-2.48469 -0.35512,-0.9625 -1.50971,-1.75 -2.56576,-1.75 -1.40443,0 -2.09729,-0.94454 -2.57989,-3.51701 -0.36289,-1.93436 -0.38641,-3.95936 -0.0523,-4.5 1.02334,-1.6558 3.31956,-1.09376 3.97555,0.97309 1.02419,3.22694 6.24528,6.88109 10.80977,7.56557 5.48144,0.822 15.02974,-2.38568 19.0406,-6.39654 1.57199,-1.57199 3.60521,-5.14975 4.51827,-7.95058 0.96386,-2.95663 2.07642,-4.79509 2.65271,-4.38348 2.19877,1.57045 5.42948,7.12992 4.48319,7.71476 -0.54483,0.33672 -0.99749,1.59817 -1.00591,2.80321 -0.0262,3.74698 -1.43136,4.76257 -10.08959,7.2923 -15.53495,4.53896 -25.22005,6.17266 -27.46804,4.63337 z m -118.69259,-3.32274 c -16.5251,-3.89327 -25.11698,-19.32998 -18.27445,-32.83305 6.04142,-11.92217 21.2068,-18.96286 34.76439,-16.13973 11.15099,2.32199 20.42668,8.9619 23.4017,16.75187 4.76025,12.46454 -4.95497,28.09327 -19.86822,31.96172 -5.7787,1.49897 -14.2933,1.60919 -20.02342,0.25919 z m 164.74201,-9.3075 c -0.86329,-1.31755 -2.3814,-2.60783 -3.37358,-2.86729 -1.25924,-0.3293 -1.97964,-1.78154 -2.38577,-4.80943 -0.31999,-2.38572 -0.34495,-4.72091 -0.0555,-5.18931 0.28948,-0.4684 2.07667,0.74469 3.97152,2.69575 3.48854,3.59204 5.44644,4.46628 10.86681,4.85222 2.69706,0.19204 3.03126,-0.10939 3.30953,-2.98507 0.52721,-5.44814 7.8802,-10.48351 13.65226,-9.34914 1.74695,0.34332 3.53821,-3.27307 3.53821,-7.14331 0,-4.30307 0.85808,-4.72816 3.54686,-1.75709 1.94194,2.14582 2.70266,10.821 1.23552,14.0899 -1.42628,3.17799 -25.38624,14.85832 -30.47893,14.85832 -1.27806,0 -2.93822,-1.03921 -3.82693,-2.39555 z m -45.47648,-1.89236 c -3.15343,-1.58735 -3.93208,-6.14289 -1.29152,-7.55607 2.79415,-1.49538 8.87681,-2.42242 11.15343,-1.69985 4.99168,1.5843 3.25712,7.86129 -2.62368,9.4945 -4.58513,1.27338 -4.21,1.28574 -7.23823,-0.23858 z m 87.07154,-19.12589 c -0.72404,-0.87241 -1.93633,-1.5862 -2.69398,-1.5862 -0.75766,0 -1.39456,-0.3375 -1.41533,-0.75 -0.0208,-0.4125 -0.2797,-2.41683 -0.57539,-4.45407 -0.29569,-2.03724 -0.0674,-4.51224 0.50736,-5.5 0.57474,-0.98776 1.05867,-1.27013 1.07539,-0.62749 0.0167,0.64264 1.54603,2.10514 3.39844,3.25 6.30268,3.89527 16.71115,2.07223 25.21914,-4.41713 3.64787,-2.78237 7.41283,-10.14202 7.41283,-14.49041 0,-3.94947 1.16064,-3.80014 4.50083,0.57908 2.32245,3.04489 2.5723,3.9541 1.64553,5.98815 -0.60098,1.31899 -0.85388,3.02048 -0.56201,3.78108 0.90067,2.34711 -2.54202,4.72509 -17.07556,11.79467 -15.8417,7.70592 -19.47539,8.79622 -21.43725,6.43232 z m 46.00311,-20.51004 c -3.59379,-3.66639 -3.81698,-4.24049 -3.40164,-8.75 0.24447,-2.65439 0.68932,-5.95116 0.98856,-7.32616 0.49298,-2.26533 0.75789,-2.0205 2.82207,2.60821 3.85295,8.63985 10.75082,12.61101 22.01636,12.67502 10.17081,0.0578 15.04409,-2.89909 17.88128,-10.84954 1.20883,-3.3874 1.50864,-3.65594 2.15889,-1.93369 0.41531,1.1 1.37396,3.54208 2.13033,5.42685 0.99087,2.46907 1.06407,3.61916 0.26193,4.11491 -0.61232,0.37843 -1.6422,1.74892 -2.28863,3.04553 -1.7968,3.60402 -7.46998,4.75031 -23.9334,4.83586 l -14.7896,0.0768 z m -36.83611,0.30236 c -2.19507,-0.96198 -3.40251,-4.20362 -2.31951,-6.22723 1.18947,-2.22253 11.19059,-5.56866 13.98917,-4.68043 3.96821,1.25946 3.7342,6.22298 -0.42177,8.94607 -2.56102,1.67805 -9.23788,2.84247 -11.24789,1.96159 z m 50.00333,-6.41269 c -3.53722,-1.42138 -4.88463,-5.3359 -2.88639,-8.3856 3.17132,-4.84006 12.82025,-5.58412 19.52657,-1.50576 3.63548,2.21086 4.01345,5.01333 1.04869,7.77543 -3.26004,3.03719 -12.61225,4.1559 -17.68887,2.11593 z"
       style="fill:#6b9572" />
    <path
       id="path4527"
       d="m 151.34613,199.66246 c -16.5251,-3.89327 -25.11698,-19.32998 -18.27445,-32.83305 6.04142,-11.92217 21.2068,-18.96286 34.76439,-16.13973 11.15099,2.32199 20.42668,8.9619 23.4017,16.75187 4.76025,12.46454 -4.95497,28.09327 -19.86822,31.96172 -5.7787,1.49897 -14.2933,1.60919 -20.02342,0.25919 z m 111.8107,-4.52288 c -0.89138,-4.75147 -0.15935,-5.2969 1.19341,-0.8892 0.59049,1.92399 0.71521,3.71967 0.27717,3.9904 -0.43805,0.27073 -1.09981,-1.12482 -1.47058,-3.1012 z m 6.35689,-9.57207 c -0.9947,-1.85861 -0.83487,-2.45299 1.0756,-4 2.73553,-2.21509 8.32665,-2.36983 10.40842,-0.28806 2.07118,2.07118 1.08299,4.11189 -2.61548,5.40118 -4.76239,1.66018 -7.57312,1.3074 -8.86854,-1.11312 z m 38.09794,1.12398 c 0,-0.58246 0.45,-0.7809 1,-0.44098 0.55,0.33992 1,0.81648 1,1.05902 0,0.24254 -0.45,0.44098 -1,0.44098 -0.55,0 -1,-0.47656 -1,-1.05902 z m 3.45888,-0.008 c -0.36253,-0.58659 -0.44468,-1.281 -0.18255,-1.54313 0.26212,-0.26213 0.74306,0.21781 1.06875,1.06653 0.67618,1.76211 0.0999,2.07206 -0.8862,0.4766 z m 19.59293,-2.83665 c -1.46002,-2.72809 0.78266,-7.24474 4.42025,-8.90213 8.39694,-3.82591 13.24136,2.43604 5.61103,7.25286 -5.85382,3.69535 -8.68695,4.16116 -10.03128,1.64927 z m 22.6794,-18.01666 c -0.43497,-1.66335 -0.30483,-2.05378 0.43724,-1.31171 0.5811,0.5811 0.85979,1.64682 0.61931,2.36826 -0.24965,0.74895 -0.70294,0.29565 -1.05655,-1.05655 z m 13.30862,-18.53217 c -1.86142,-2.24288 -0.2157,-5.57656 3.52441,-7.13928 4.37375,-1.82747 6.92033,-1.78128 8.86235,0.16074 2.23127,2.23127 0.55044,4.82246 -4.41765,6.8103 -4.98842,1.99597 -6.42703,2.02634 -7.96911,0.16824 z m 29.69138,-2.46783 c -0.43497,-1.66335 -0.30483,-2.05378 0.43724,-1.31171 0.5811,0.5811 0.85979,1.64682 0.61931,2.36826 -0.24965,0.74895 -0.70294,0.29565 -1.05655,-1.05655 z m 3.34774,-0.66349 c 0.048,-1.16495 0.28494,-1.4019 0.60416,-0.60417 0.28887,0.72187 0.25335,1.58437 -0.0789,1.91667 -0.33229,0.33229 -0.56864,-0.25834 -0.52522,-1.3125 z m 17.14356,-3.97337 c -5.08445,-3.5608 -1.00825,-8.44281 7.04966,-8.44281 9.29204,0 14.14828,5.47358 7.72783,8.71023 -3.51944,1.7742 -12.08424,1.61949 -14.77749,-0.26693 z"
       style="fill:#9a5860" />
  </g>
</svg>
